<?xml version="1.0"?>
<svg xmlns="http://www.w3.org/2000/svg" width="76" height="22" viewBox="0 0 76 22" fill="none">
<path d="M75.2784 11.6505C75.2784 11.4457 75.1916 11.271 75.1193 11.1096C75.0326 10.9794 74.858 10.847 74.858 10.6422L74.9748 10.3072C74.9748 10.0446 74.7713 9.76751 74.6835 9.53381L74.3788 8.6146C74.2499 8.30779 74.0998 8.01032 73.9296 7.72432C73.6683 7.31479 73.2036 7.25692 73.0012 7.09555L72.7977 6.67267C72.2896 6.36663 71.7381 6.02944 71.1721 5.79685C71.0131 5.75234 70.7518 5.70782 70.5773 5.63549L70.2437 5.50529C70.1281 5.47524 70.0847 5.41626 69.9824 5.34392C69.7789 5.18367 69.5621 5.00784 69.1852 5.00784C68.9817 5.00784 68.8516 5.08129 68.6759 5.12469C68.5603 5.15362 68.4313 5.15363 68.3724 5.15363L67.9944 5.08129C67.8643 5.00784 67.8643 5.00784 67.7342 5.00784C67.4873 5.00784 67.067 5.05235 66.848 5.16809C66.7613 5.2126 66.6312 5.41737 66.5589 5.4463C66.5589 5.4463 66.1809 5.37286 66.0063 5.37286C65.7895 5.4029 65.2958 5.48971 65.2958 5.48971C64.6865 5.81021 63.9615 6.33547 63.3945 6.77394C63.2499 6.89079 63.3511 7.1256 63.2355 7.22687C63.1198 7.32925 62.7863 7.28585 62.6984 7.35819C62.277 7.76772 61.9001 8.37979 61.6833 8.87612C61.6833 8.87612 61.4509 9.9133 61.4075 9.98563C61.3197 10.1181 61.2185 10.3217 61.204 10.4085C61.204 10.4085 60.9861 10.7891 60.8705 10.9638C60.7104 11.2999 60.667 11.5637 60.6236 11.6939L60.6525 12.3226C60.6525 12.5407 60.7693 12.6576 60.7693 12.6576C60.7693 12.8768 60.6381 13.0671 60.6092 13.1539C60.5647 13.3298 60.5213 13.46 60.5213 13.6658C60.5213 13.8261 60.8994 15.7235 60.8994 15.7235C61.1017 16.3656 61.4353 16.833 61.7411 17.3294C61.9446 17.6799 62.1469 18.0149 62.3215 18.351C62.366 18.4389 62.4371 18.5991 62.4516 18.8039C62.525 19.0955 62.5683 19.3881 62.7418 19.6063C63.2355 20.0592 63.758 20.4965 64.5419 20.7892L65.0345 20.8615C65.1501 20.8615 65.586 20.876 65.6294 20.9205C65.6294 20.9205 65.7172 21.1242 65.8473 21.241C66.0641 21.4458 66.4277 21.694 66.4277 21.694C67.0081 21.8108 67.7186 21.8253 67.9365 21.8253C68.0955 21.8253 68.2412 21.7808 68.4447 21.7385C68.5748 21.6495 68.7493 21.665 68.865 21.6494C69.0395 21.6205 69.2285 21.4603 69.6199 21.694C69.6922 21.7385 69.7934 21.7385 69.8668 21.7385C70.3304 21.7385 71.1288 21.2855 72.5798 20.5121C72.6232 20.5121 72.7399 20.3797 72.7544 20.3797L73.0879 20.2628C73.3926 20.1326 73.8718 20.0002 74.1476 19.5773C74.7702 18.5112 74.9448 18.1751 74.9448 17.227C74.9448 16.8041 74.8291 16.5114 74.6401 16.2632C74.2921 15.8404 73.7261 15.9138 73.2191 15.9138H73.059C72.9856 15.9138 72.522 15.9138 72.3919 16.2043C72.3919 16.2043 71.9271 16.7607 71.6369 17.0812C71.3756 17.4173 71.3756 17.533 71.1721 17.7667C71.0565 17.8847 70.8241 18.0149 70.7229 18.1473C70.6351 18.322 70.3449 18.5702 70.3449 18.5702C70.1425 18.7304 69.8512 18.657 69.591 18.687C69.4598 18.716 69.3297 18.716 69.213 18.7304C69.1263 18.7749 68.8794 18.8618 68.7638 18.9063C68.6481 18.9486 68.3857 18.9063 68.3568 18.9063C68.3146 18.9063 68.2267 18.8762 68.1111 18.7883C67.8932 18.6281 67.7775 18.5847 67.5307 18.5847C67.2694 18.5847 66.848 18.4967 66.848 18.4967C66.6843 18.3025 66.5051 18.122 66.3121 17.957C66.1375 17.7968 65.8328 17.898 65.6005 17.8257C64.9333 17.5197 64.7298 16.7451 64.7298 16.7451C64.7298 16.7451 64.6431 16.409 64.6431 16.2922C64.6026 16.0971 64.5589 15.9027 64.5119 15.709C64.4252 15.4598 64.3529 15.3296 64.3529 14.9501C64.3529 14.9501 64.8888 14.6429 65.1368 14.6429C65.1802 14.6429 65.2958 14.673 65.3981 14.6874C65.5282 14.7153 65.6594 14.7754 65.8184 14.7754C65.9785 14.7754 66.123 14.6863 66.2676 14.6429C66.3554 14.614 66.5144 14.5706 66.5144 14.5706C66.6745 14.5706 66.8191 14.5706 66.9358 14.6429C67.0226 14.6874 67.1538 14.7754 67.3139 14.7754C67.4729 14.7754 67.5741 14.6863 67.8643 14.5706C68.0273 14.4565 68.2167 14.386 68.4146 14.3658C68.4146 14.3658 69.3442 14.4382 69.7211 14.4971C70.5484 14.5851 70.9409 14.6285 71.0999 14.6285C71.23 14.6285 71.3612 14.5839 71.7247 14.4971C71.9271 14.4237 72.2173 14.3658 72.2173 14.3658C72.3774 14.3658 72.6231 14.4103 72.711 14.4382C72.8844 14.5272 73.059 14.5706 73.1613 14.5706C73.8284 14.5706 74.8291 13.9863 74.917 13.1395C74.9448 12.8768 75.1772 12.6131 75.2939 12.2636C75.3806 11.9565 75.2784 11.7818 75.2784 11.6505ZM60.7248 10.2338C60.7248 10.0146 60.6803 9.81092 60.5658 9.59168C60.5358 9.43143 60.478 9.28565 60.478 9.16769C60.4491 9.08089 60.4491 8.92063 60.4491 8.7882C60.478 8.49775 60.478 8.16167 60.4202 7.82447C60.3251 7.57842 60.1878 7.35093 60.0143 7.15231C59.9409 7.11002 59.8831 7.03657 59.8831 6.99317C59.809 6.90053 59.741 6.80313 59.6796 6.7016C59.3761 6.10289 58.9691 5.43072 58.5199 5.4029C58.3523 5.40781 58.1902 5.46371 58.0552 5.56315L57.7939 5.51864C57.577 5.38844 57.4603 5.30052 57.3291 5.30052C57.0845 5.30052 56.2283 5.51864 55.9081 5.63438L55.4144 5.98715C55.3421 6.02944 55.2977 6.29207 55.2977 6.29207C55.2977 6.29207 55.0953 6.2342 55.0508 6.2342C54.8485 6.27761 54.3704 6.27761 54.1813 6.52577C54.1813 6.52577 53.9634 6.77283 53.8756 6.87632C53.4986 7.25581 53.4264 7.38823 53.1506 7.37377C52.976 7.37377 52.9338 7.34261 52.817 6.78841C52.7303 6.24979 52.5557 5.35839 51.4672 5.34392C51.2215 5.31388 50.9602 5.31387 50.829 5.31387L50.3798 5.56315C50.2197 5.56315 50.0306 5.13916 49.7415 5.27047L48.0137 5.38843C47.7524 5.34392 47.4633 5.22707 47.2731 5.24154C47.0119 5.25489 46.8962 5.43072 46.795 5.44519C46.0834 5.61991 45.6353 6.33547 45.6198 6.89079C45.5909 7.35819 45.9533 7.81112 46.1713 8.05929C46.3458 8.26405 46.954 8.86165 47.6367 8.8917C47.8402 8.8917 48.0148 8.80267 48.3039 8.67247C48.3906 8.62795 48.5218 8.54115 48.5218 8.54115C48.5218 8.54115 49.3057 8.91952 49.6537 9.2122C49.915 9.72411 49.8716 10.3228 49.8572 10.9494C49.8272 11.153 49.8272 11.3722 49.8272 11.6215L49.7994 13.066V14.4671L49.726 14.979C49.6537 15.196 49.6393 15.5187 49.6537 15.7803C49.6537 15.985 49.6826 16.3211 49.7415 16.6116C49.7693 16.7006 49.8127 16.9054 49.8127 16.9488C49.8127 16.9488 49.6537 17.9692 49.5514 18.3064C49.4658 18.4812 49.2045 18.6125 48.971 18.7293C48.8854 18.7738 48.7542 18.8606 48.7542 18.8606C48.7831 18.8328 48.4062 18.7438 48.4062 18.7438C48.2463 18.6926 48.0802 18.663 47.9125 18.6559C47.7384 18.6489 47.5647 18.6775 47.4021 18.7399C47.2394 18.8023 47.0911 18.8972 46.9663 19.0188C46.8414 19.1404 46.7426 19.2862 46.6759 19.4473C46.6092 19.6084 46.576 19.7813 46.5782 19.9557C46.5782 20.3641 46.665 20.6712 46.8673 20.846C46.8673 20.846 47.3321 21.5181 47.6656 21.5181C47.8258 21.5181 47.9559 21.4447 48.2883 21.3134C48.4062 21.2399 48.4929 21.3412 48.4929 21.3412C48.4929 21.3412 48.7397 21.2544 48.7976 21.2689C48.971 21.4002 49.1756 21.4302 49.3346 21.4302C49.4936 21.4302 49.7115 21.4736 49.9295 21.4002C50.0162 21.3724 50.3498 21.211 50.3498 21.211C50.6689 21.4002 50.9446 21.5615 51.1047 21.5771H52.6147C52.8159 21.5771 53.0194 21.5771 53.2952 21.4436C53.4119 21.4002 53.4264 21.2544 53.4697 21.2399L53.8478 21.4002C54.0068 21.4736 54.1813 21.5181 54.3403 21.5326C54.5438 21.5326 54.7184 21.4592 54.8774 21.4158L55.2109 21.3712C55.33 21.3191 55.4591 21.2941 55.589 21.2978H55.9226C56.5897 21.2544 57.0834 20.2751 57.0978 19.8689C57.0978 19.5317 56.9244 19.1967 56.6909 18.9786C56.605 18.8637 56.4962 18.7678 56.3714 18.6972C56.2466 18.6265 56.1086 18.5825 55.9659 18.568C55.7913 18.568 55.6323 18.6125 55.4722 18.657C55.3382 18.6879 55.2028 18.7124 55.0664 18.7304C54.8051 18.6993 54.0068 18.6993 53.6432 18.598C53.2373 18.4378 52.7581 18.0138 52.5124 17.7667C52.3812 17.4729 52.4679 16.7596 52.5124 16.3645C52.5124 16.2031 52.5569 16.1019 52.5569 15.955L52.5847 15.5321C52.6291 14.9912 52.6569 13.9852 52.6569 13.9852C52.6569 13.9852 52.6569 13.6781 52.628 13.6057C52.628 13.5167 52.5847 13.431 52.5847 13.3865C52.5847 13.2986 52.4546 12.6709 52.7003 12.5118C52.8604 12.3783 52.8159 12.1601 52.9916 12.0144C53.542 11.6048 53.7744 11.3722 54.0357 10.788C54.1292 10.5815 54.2164 10.3722 54.297 10.1604C54.4282 10.0001 55.023 9.62062 55.4 9.28454C55.5734 9.03637 55.6468 9.02079 55.8203 8.90505C55.949 8.79721 56.1047 8.72643 56.2706 8.70029L56.3573 8.91952C56.3573 9.03637 56.3128 9.13764 56.2706 9.22556C56.1105 9.60504 56.0682 9.8532 56.0682 10.058C56.0382 10.5699 56.8221 11.6048 57.2713 11.8686C57.4747 11.9843 57.6927 12.0422 57.8962 12.0711L57.9829 12.1156C58.143 12.2492 58.272 12.3794 58.4899 12.3794C58.6645 12.3794 58.8969 12.2625 59.0414 12.0711C59.2015 11.8964 59.375 12.0711 59.4628 11.8964C59.4628 11.8964 59.6652 11.6349 59.8687 11.547C60.0721 11.4301 60.2167 11.3266 60.3768 11.1241C60.6381 10.8614 60.7248 10.482 60.7248 10.2327V10.2338ZM46.4192 19.8266C46.4192 18.4689 45.3307 18.3799 44.6624 18.3354C44.4601 18.3076 44.2421 18.3076 44.1699 18.2642C43.9519 18.1751 43.7629 18.0004 43.7629 17.8413C43.7629 17.8413 43.8352 17.5052 43.8786 17.3294C43.9953 16.8764 43.923 16.6583 43.923 16.5259C43.923 16.3512 43.9953 16.1464 43.8786 15.8548C43.8508 15.7669 43.8352 15.6801 43.8074 15.6356C43.8074 15.6356 43.8508 15.4609 43.8786 15.3296C43.923 15.1982 43.9519 15.0658 43.9519 14.92C43.9519 14.673 43.8652 14.4237 43.7774 14.2056C43.7485 14.1321 43.7351 14.0743 43.7051 14.0297L43.6773 13.6792C43.7051 13.5924 43.7051 13.5924 43.7051 13.4166C43.7051 13.2852 43.6773 12.9647 43.7496 12.8323C43.7929 12.76 43.8207 12.6721 43.8652 12.6131C43.9808 12.4384 44.112 12.1902 44.112 11.9865C44.112 11.9865 44.271 9.66513 44.271 9.46037V9.30123C44.3 8.8917 44.3 8.4243 44.2421 8.08822V8.17725C44.2383 7.99937 44.1827 7.82647 44.082 7.6798L44.0542 7.41605C44.0242 6.96424 44.0242 6.45344 43.6473 6.2342C43.2259 5.97157 42.4865 5.89924 42.313 5.89924C42.1807 5.89924 42.0506 5.92817 41.8905 5.94375C41.776 5.94375 41.6881 5.91259 41.6303 5.91259C41.6303 5.91259 41.4569 5.86808 41.3412 5.82579C41.0499 5.66554 40.8753 5.57762 40.7019 5.57762C40.5273 5.57762 40.4839 5.76681 40.3238 5.85472C40.2371 5.88477 39.918 5.78239 39.9035 5.78239L39.5266 5.69336C39.2798 5.62102 39.1486 5.57762 39.0185 5.57762C38.3947 5.57762 36.9581 7.13895 36.9581 7.82559C36.9581 8.08822 37.0738 8.3375 37.2917 8.55562C37.712 8.9785 38.3947 9.18327 38.7283 9.18327C38.9751 9.18327 39.2219 9.06642 39.2798 9.06642L39.8302 9.38803L40.0336 9.43255C40.1648 9.47595 40.2371 9.50377 40.3672 9.50377C40.4406 9.53382 40.6585 9.54828 40.7019 9.57833L40.862 9.88325C40.862 9.88325 40.8898 10.1325 40.5707 10.3061L40.4117 10.3952L40.3394 10.5699C40.2516 10.9494 40.425 11.2866 40.5562 11.5047C40.6007 11.577 40.6863 11.7962 40.6863 11.8408L40.5707 12.3504C40.4881 12.6249 40.449 12.9107 40.455 13.1973L40.6285 13.6503L40.7597 13.914C40.7597 13.914 40.4117 15.1682 40.1359 15.6501C39.8891 16.103 39.5555 16.4969 39.222 16.9209C39.0185 17.168 38.8005 17.4306 38.5971 17.7088C38.4381 17.957 38.0167 18.5412 37.7276 18.5412H37.6397C36.8136 18.5412 36.5367 18.4967 36.5367 18.4967C36.0731 18.2775 35.754 17.898 35.377 17.4028L35.347 17.3728C35.1302 17.0812 35.1736 16.1464 35.188 15.7235C35.188 15.5621 35.2169 15.373 35.2314 15.1682C35.3036 14.6285 35.3192 14.3224 35.2603 14.1032V14.0587C35.1736 13.8394 35.0579 13.7092 34.9701 13.6069C34.8978 13.5345 34.8978 13.5345 34.8978 13.4466C34.8978 13.3298 35.1435 12.336 35.1435 12.336C35.1736 12.336 35.3915 12.0444 35.4048 12.0299L35.5216 11.6794C35.5939 11.4312 35.3915 11.2265 35.2169 10.9939C35.1395 10.888 35.0714 10.7755 35.0134 10.6578L34.9701 10.4831V9.94334C34.9701 9.53381 35.0424 9.40139 35.1302 9.2122C35.2458 9.00855 35.377 8.75927 35.377 8.29298C35.377 7.94243 35.3036 7.32925 35.1157 7.06662C35.0279 6.9353 34.9401 6.90637 34.8244 6.80399C34.244 6.16187 33.5635 5.75234 32.7785 5.75234C32.6485 5.75234 32.5184 5.79685 32.2704 5.84137C32.1848 5.86919 32.0825 6.05949 32.0258 6.05949L31.5165 5.81021C31.2119 5.72341 31.0518 5.68 30.9217 5.68C30.7182 5.68 29.4851 6.13182 29.4851 6.8485C29.4851 7.09555 29.4562 7.4461 29.4128 7.7232C29.3839 7.94244 29.3839 8.05929 29.3839 8.13273C29.3839 8.4243 29.5429 8.73145 29.8487 9.05195C30.1534 9.38803 30.7327 9.76752 31.153 9.76752C31.3176 9.7676 31.4771 9.71057 31.6044 9.60615C31.72 9.53381 32.0091 10.2049 32.0091 11.5915L32.0536 12.3082C32.0825 12.8178 32.127 13.2418 32.127 13.2418C32.097 13.2708 32.0825 13.4021 32.0536 13.4166C32.0019 13.5467 31.9773 13.6861 31.9813 13.8261V16.4524C31.9813 16.7462 32.1548 16.9065 32.1548 17.0812L32.2704 17.4173C32.3149 17.6209 32.4016 17.9292 32.4016 17.9292C32.4016 17.957 33.9549 21.5916 35.5371 21.5916C35.6661 21.5916 35.8407 21.5626 35.9852 21.5471C36.0575 21.5192 36.1598 21.3434 36.2032 21.3434C36.2032 21.3434 36.3633 21.5626 36.45 21.5916C36.6535 21.665 36.828 21.7229 36.987 21.7229C37.1605 21.7229 37.3351 21.6506 37.5385 21.5916C37.6253 21.5626 37.742 21.5037 37.7854 21.5037L38.0745 21.5782C38.2502 21.6227 38.4092 21.665 38.5392 21.665C38.7427 21.665 38.845 21.665 39.004 21.5916L39.0763 21.5192C39.2497 21.3879 39.4832 21.2566 39.7001 21.1097C39.9614 20.935 40.3394 20.6423 40.3394 20.6423C40.4984 20.5266 40.832 20.3797 40.9343 20.235C41.0054 20.146 41.0499 20.1905 41.0499 20.1905C41.0499 20.1905 41.1366 20.3073 41.1655 20.4097C41.21 20.5266 41.2389 20.6145 41.2823 20.6724L41.3546 20.7892L41.4424 20.8337C41.5725 20.9061 41.9794 20.9639 42.1095 21.0518C42.6599 21.3434 42.8345 21.4013 42.9512 21.4013C43.0706 21.4009 43.1886 21.3763 43.2981 21.3289L43.7485 21.4892C44.1543 21.6227 44.3 21.694 44.4312 21.694C44.8092 21.694 44.8948 21.5048 45.2718 21.0374L45.5186 21.0084C45.5186 21.0084 45.6064 20.8326 45.6787 20.8326C45.7771 20.835 45.8746 20.8138 45.963 20.7706C46.0515 20.7274 46.1282 20.6636 46.1868 20.5845C46.3169 20.3953 46.4192 20.1616 46.4192 19.8255V19.8266ZM13.9831 18.1573C13.9606 18.1444 13.9384 18.131 13.9164 18.1173C13.6985 17.9993 13.6251 18.1751 13.4372 18.0727C13.1904 17.9559 13.1459 18.0305 13.0158 18.0583C12.6967 18.1173 12.8712 18.1751 12.6678 18.292C12.4354 18.4244 12.4065 18.7594 12.4065 18.7594C12.4065 18.7594 11.9717 19.0231 11.9428 18.5546L11.8116 18.2052C11.7393 17.9559 11.478 17.7378 11.6081 17.6499L11.8694 17.1535C11.8995 16.9788 12.0006 16.8475 11.9573 16.6572C11.8694 16.4969 11.8261 16.3055 11.7972 16.2343C11.7972 16.2343 11.696 15.8693 11.7393 15.797C11.855 15.6222 11.9573 15.6222 11.9573 15.4442C11.9128 15.0947 11.8694 14.8477 12.0017 14.4816C12.1163 14.2345 11.885 13.8116 11.885 13.8116C11.9573 13.4021 12.1307 13.46 12.1029 12.8023C12.0729 12.5407 12.233 12.2904 12.0295 12.0589C12.0295 12.0589 11.9128 11.9276 11.9573 11.883L12.1018 11.6059C12.1453 11.4048 12.1247 11.195 12.0429 11.0061L11.9128 10.8314L11.9273 10.5699C12.0151 10.3228 11.9573 10.1181 11.9573 9.92776C11.8995 9.43143 11.3046 8.33638 11.3046 8.33638C11.1445 8.16167 11.0867 7.94243 10.9266 7.82447C10.8098 7.76772 10.6664 7.75325 10.6508 7.70874C10.6074 7.69538 10.593 7.51732 10.593 7.47504C10.4895 7.26885 10.3137 7.10802 10.0993 7.02322C10.0993 7.02322 9.76574 6.83403 9.60674 6.81845C9.49132 6.80588 9.37848 6.77586 9.27206 6.72943L9.11195 6.59811C9.02633 6.43897 8.86733 6.37888 8.66274 6.33659C8.66274 6.33659 8.4159 6.29207 8.19797 6.30765C8.06788 6.30765 7.93668 6.26314 7.82104 6.29207C7.77656 6.32212 7.74877 6.32212 7.73431 6.32212L7.45856 6.21862C7.22618 6.08953 7.125 6.07284 6.95043 6.08953C6.66023 6.08953 6.55793 6.30765 6.37002 6.4679C6.32666 6.51242 5.93527 6.51242 5.87746 6.49684C5.76182 6.48237 5.70289 6.45232 5.54278 6.46902C5.38266 6.46902 5.26703 6.49684 4.92012 6.65709C4.78891 6.7016 4.51317 6.7016 4.51317 6.7016C4.51317 6.7016 4.30969 6.73054 4.22407 6.71496C4.02338 6.66431 3.81883 6.63043 3.61253 6.61369C3.36792 6.61369 3.27897 6.93419 2.91649 7.11002C2.82976 7.18347 2.66965 7.15453 2.55401 7.22687C2.50954 7.2558 2.42392 7.50508 2.38056 7.53402C2.00252 7.81223 1.91579 8.1906 1.59668 8.14609C1.53775 8.14609 1.26311 8.32192 1.21863 8.36421C1.05107 8.52004 0.904877 8.69741 0.783883 8.8917C0.610428 9.12317 0.494791 9.51824 0.494791 9.70853C0.494791 9.73858 0.479225 9.86878 0.479225 9.9133C0.479225 10.5409 0.49368 11.2999 0.696044 11.7673C0.841701 12.1468 1.62558 12.731 2.03031 12.7155C2.14817 12.7155 2.17708 12.6131 2.29272 12.6131C2.40947 12.6131 2.49619 12.5263 2.55401 12.6721C2.55401 12.6721 2.66965 12.7166 2.72858 12.731C2.90315 12.7744 3.06215 12.8178 3.19224 12.8023C3.54137 12.7889 4.13623 12.0878 4.16514 11.8408C4.22296 11.4757 4.28078 10.877 4.26521 10.7023C4.26389 10.6035 4.24274 10.506 4.20301 10.4156C4.16328 10.3252 4.10578 10.2437 4.03394 10.1759C3.94721 10.0724 3.90385 10.0724 3.88939 9.9133C3.88939 9.70853 4.06396 9.62173 4.07842 9.59168L4.67217 9.38692C4.92012 9.38692 5.44271 9.76529 5.61616 9.56386C5.61616 9.56386 5.77516 9.51935 5.83409 9.56386C6.07871 9.73858 5.99309 9.85321 6.2833 9.84096C6.4423 9.84096 6.76141 9.73858 7.00936 9.59168L7.27065 9.60615C7.42965 9.69295 7.32847 9.78198 7.50193 9.82538C7.67538 9.86878 7.92333 9.89772 8.09679 9.92776L8.43036 9.85432C8.89513 10.0591 8.88067 10.7168 8.92404 11.0818C8.92404 11.2565 8.76504 12.0878 8.72056 12.4818L8.47372 12.5997C8.31472 12.7744 8.03897 12.4973 7.93668 12.4973C7.71986 12.4973 7.64759 12.5129 7.06718 12.9636L6.76141 13.0816C6.54459 13.1684 6.51679 13.1817 6.39893 13.3431C6.35668 13.372 6.09539 13.1817 6.09539 13.1817C5.78962 13.0226 5.50052 13.4321 5.32485 13.4321C4.72998 13.4321 4.74444 13.2407 4.41087 13.6503C4.41087 13.6503 3.68592 13.6937 3.59919 13.7226C3.30788 13.8394 3.25006 13.6937 2.87313 13.8695C2.51065 14.0442 2.58403 14.3068 2.49508 14.3514C2.5251 14.3514 2.26381 14.249 2.26381 14.249C2.2349 14.249 2.13261 14.279 2.06033 14.279C1.84352 14.3068 1.43656 14.6997 1.43656 14.6997C0.724953 15.0525 0 16.8608 0 17.1836C0 17.3583 0.0733848 17.5486 0.144546 17.7233C0.217931 17.8546 0.0578183 17.9704 0.0878394 18.0883C0.0878394 18.2196 0.115637 18.3944 0.115637 18.5546C0.145658 18.7583 0.145658 18.933 0.160112 19.0955C0.160112 19.0955 0.376931 19.8099 0.696044 19.9857L0.89952 20.1026C0.972905 20.1471 1.19084 20.3073 1.19084 20.3073C1.3932 20.6868 1.65449 20.994 1.91579 21.1086C2.13261 21.1976 2.29272 21.0952 2.51065 21.1242C2.71301 21.1676 2.97431 21.4169 2.97431 21.4169C3.04769 21.4603 3.14888 21.5337 3.2356 21.5916C3.64255 21.8542 3.87494 22 4.10621 22C4.35305 22 4.52762 21.8843 4.72998 21.7819C4.76001 21.7529 5.19475 21.6205 5.22366 21.6205L6.80588 21.5471C6.84925 21.5471 6.93709 21.5471 7.05272 21.5782C7.16836 21.606 7.29845 21.6205 7.40075 21.6205C7.7054 21.6205 7.90888 21.5037 8.02452 21.4603L8.22799 21.2989C8.31472 21.1832 8.48929 21.0374 8.56156 21.0084L8.76504 20.9628C8.98185 20.9205 9.27206 20.876 9.4911 20.6579V20.6868C9.66456 20.5255 9.78019 20.3508 9.82467 20.2639C9.82467 20.2639 10.2016 20.3507 10.3751 20.4676L10.593 20.7302C10.6797 20.8615 10.7965 21.0374 10.941 21.1542C11.3624 21.4169 11.6237 21.5626 11.9573 21.5626C12.0874 21.5626 12.6389 21.5337 12.7111 21.5192L13.0447 21.4313C13.2482 21.5204 13.2626 21.5916 13.3938 21.5916C13.584 21.5916 13.8375 21.389 13.9754 21.2778C14.1088 21.2599 14.2611 21.2299 14.3801 21.1821C14.4668 21.1387 14.6414 21.0953 14.6847 21.0652L14.9894 21.1976C15.0761 21.3724 15.2785 21.4447 15.3952 21.4447C15.5264 21.4158 15.5698 21.4747 15.7288 21.4013C15.8022 21.3723 16.0779 21.2844 16.1513 21.3568C16.4849 21.5326 16.6583 21.6494 16.8618 21.6494C16.9919 21.6494 17.1231 21.5771 17.3978 21.4881C17.4856 21.4436 17.6591 21.3724 17.7035 21.3579C17.7035 21.3579 17.8336 21.4302 18.0805 21.4447C18.8632 21.5326 19.1245 21.5626 19.2124 21.5626C19.3425 21.5626 19.4737 21.5326 19.676 21.4736C19.7205 21.4447 19.894 21.4013 19.894 21.4013C19.894 21.4013 20.401 21.4881 20.6056 21.5181C21.0692 21.635 21.0114 21.6784 21.0981 21.6784C21.2149 21.6784 21.3594 21.6049 21.693 21.4747C21.8231 21.4302 22.2879 21.3579 22.2879 21.3579C22.4046 21.4024 22.5347 21.4447 22.6937 21.4447C22.8972 21.4447 23.0717 21.3278 23.2318 21.1531C23.2596 21.1231 23.3041 21.0808 23.3186 21.0363L23.4776 21.1097C23.5654 21.2844 23.7822 21.3579 23.899 21.3579C24.0291 21.3278 24.2036 21.3868 24.3638 21.3134C24.3638 21.3134 24.5661 21.1976 24.625 21.2689C24.9586 21.4447 25.1321 21.5626 25.3355 21.5626C25.4656 21.5626 25.5968 21.4881 25.8715 21.4013C25.9604 21.3568 26.1772 21.2844 26.2206 21.27C26.2206 21.27 26.7276 21.3423 26.9756 21.3579C27.7595 21.4447 28.0196 21.4747 28.1064 21.4747C28.2376 21.4747 28.3677 21.4447 28.5711 21.3857C28.6156 21.3579 28.7891 21.3134 28.7891 21.3134C28.7891 21.3134 29.2961 21.4024 29.4996 21.4302C29.9643 21.5471 29.9065 21.5905 29.9921 21.5905C30.1089 21.5905 30.2534 21.5181 30.5881 21.3868C30.7182 21.3423 31.183 21.27 31.183 21.27C31.2986 21.3145 31.4287 21.3579 31.5888 21.3579C31.7923 21.3579 31.9669 21.241 32.127 21.0652C32.4739 20.7736 32.7352 20.1605 32.7352 19.8689C32.7352 19.3726 32.6051 19.022 32.3282 18.7583C31.9235 18.351 31.8657 18.4956 31.5455 18.3354L30.8338 18.3654C30.6604 18.3654 30.1956 18.4533 29.8776 18.5401C29.8776 18.5401 29.6152 18.6559 29.5285 18.7004C29.4851 18.7304 29.1949 18.6281 29.1949 18.6281C28.9481 18.539 28.977 18.4667 28.8469 18.4667H28.4399L28.1364 17.927C28.0052 17.3872 28.1786 17.0945 28.1642 16.9198L28.252 16.2477C28.3821 15.7958 28.4555 15.6055 28.4555 15.4598C28.4555 15.1971 28.3677 15.0068 28.2809 14.92C28.2376 14.7876 28.1642 14.6719 28.3243 13.9997C28.3688 13.796 28.2954 13.401 28.2954 13.401C28.2954 13.3565 28.222 13.1539 28.2087 13.1094C28.1349 12.9649 28.0764 12.8131 28.0341 12.6565L28.1642 12.307C28.2809 11.971 28.3677 11.7951 28.3677 11.6204C28.3677 11.3722 28.2809 11.2109 28.1642 11.0362C28.0786 10.8169 27.9607 10.5398 27.9607 9.94223C27.9329 9.82538 27.9907 9.10982 27.9607 8.46659L27.9907 7.5329C27.9907 7.5329 28.063 7.37265 28.1208 7.28474C28.1942 7.12449 28.2809 6.94866 28.3243 6.73054C28.361 6.48821 28.361 6.24172 28.3243 5.99939C28.2954 5.88366 28.2954 5.69336 28.2954 5.69336C28.3243 5.51864 28.4121 5.28494 28.5133 5.09464C28.7168 4.51039 28.8024 4.30674 28.8024 4.13091C28.8024 3.95619 28.6868 3.75254 28.4689 3.44539C28.4255 3.35748 28.3532 3.22616 28.3388 3.18276C28.3388 3.18276 28.252 2.71536 28.1787 2.42268C28.0613 2.021 27.9743 1.61106 27.9185 1.19632L27.8896 1.06611L27.8006 0.977086C27.7294 0.934797 27.3525 0.525267 27.0034 0.525267C26.7421 0.554201 26.6698 0.525267 26.453 0.730032H26.1628C26.1628 0.730032 26.046 0.525267 25.7558 0.525267C25.539 0.525267 25.2477 0.480753 25.161 0.569781L24.625 0.614295C24.247 0.39395 24.2181 0.365016 24.0291 0.365016C23.899 0.365016 23.8111 0.40953 23.7244 0.437351L23.3475 0.262633C23.0139 0.0578685 22.8538 0 22.7093 0C21.7953 0.030047 21.127 1.65036 21.1571 2.36481C21.1571 3.41646 21.7797 3.75143 22.2578 4.04522C22.3323 4.04522 22.6359 4.00071 22.6937 4.04522C22.7382 4.07304 22.796 4.33568 22.8382 4.40801C22.9984 4.58384 23.144 4.52597 23.2897 4.54044C23.2897 4.54044 23.3041 4.48257 23.4631 4.43806C23.4631 4.43806 23.8845 4.70069 24.1025 4.70069C24.3193 4.70069 24.3471 4.52597 24.5228 4.39355L24.6528 4.65729C24.6973 4.81754 24.7262 4.99226 24.784 5.1692C24.784 5.1692 24.9575 5.61991 25.1176 5.83914L25.2333 6.13182C25.161 6.26314 24.9575 6.39334 24.9575 6.56917C24.9575 6.68602 25.1032 6.86074 25.1321 6.97759C25.161 7.11002 25.161 7.31479 25.161 7.40047L25.0453 7.69427C24.9342 7.84111 24.873 8.01975 24.8708 8.20396C24.8708 8.5545 25.0876 8.7882 25.2188 8.93399C25.3355 9.0653 25.3789 9.10982 25.3789 9.22556C25.3789 9.22556 25.3055 9.43032 25.2633 9.5327C25.2188 9.69295 25.1465 9.83985 25.1465 10.0001C25.0598 10.3796 25.1176 10.788 25.1899 11.0662C25.1899 11.1385 25.3055 11.6059 25.3055 11.6505L25.2633 12.6721C25.2633 12.8757 25.2333 13.0504 25.2333 13.2263C25.2055 13.401 25.1888 13.5768 25.1888 13.7805C25.1465 14.0876 25.1032 14.4081 25.1032 14.7153L25.3923 14.9935C25.4367 15.0803 25.2188 15.3574 25.2188 15.4019C25.2188 15.4742 25.2911 15.6211 25.2188 15.7369C25.1754 15.8682 25.1321 16.0284 25.1032 16.2043C25.1032 16.4669 25.0743 16.7451 25.0587 16.9922C25.0298 17.168 25.0164 17.3427 25.0164 17.4596C25.0164 17.5764 24.8563 17.7088 24.8563 17.8101C24.8263 17.9715 24.8118 18.263 24.7407 18.3209L24.3626 18.1896C23.9857 18.0583 23.899 18.1451 23.7689 18.1451C23.6955 18.1451 23.4776 18.0583 23.3619 18.0727C23.0573 18.1173 22.8249 18.1896 22.7371 18.1896C22.7371 18.1896 22.6514 18.1607 22.5636 18.1161C22.3023 18.0716 22.1856 18.0716 22.0555 18.0716C21.6352 18.0716 21.3305 18.292 21.127 18.5835C21.0826 18.5835 21.0403 18.5835 20.9969 18.6136C20.9969 18.6136 20.7357 18.7304 20.6489 18.7738C20.6044 18.8028 20.3154 18.7004 20.3154 18.7004C20.0674 18.6136 20.0974 18.5401 19.9662 18.5401H19.5604L19.3858 17.9993C19.2257 17.4596 19.2991 17.168 19.2702 16.9922L19.3569 16.3211C19.487 15.8682 19.5604 15.679 19.5604 15.5332C19.5681 15.3403 19.5123 15.1503 19.4014 14.9924C19.328 14.8622 19.2702 14.7442 19.4292 14.0731C19.4737 13.8684 19.4014 13.4744 19.4014 13.4744C19.4014 13.4299 19.328 13.2263 19.3135 13.1817C19.2402 13.0376 19.1821 12.8862 19.1401 12.7299L19.2991 12.3794C19.3858 12.0433 19.4737 11.8686 19.4737 11.6928C19.4737 11.4457 19.3847 11.2854 19.2991 11.1085C19.1823 10.8904 19.0823 10.6133 19.0823 10.0146C19.0823 9.89772 19.1101 9.18327 19.1101 8.54115V7.60635C19.1101 7.60635 19.1823 7.44499 19.2413 7.35707C19.3135 7.19682 19.4014 7.02211 19.4436 6.80287C19.4803 6.56091 19.4803 6.31481 19.4436 6.07284C19.4147 5.95599 19.4147 5.76681 19.4147 5.76681C19.4436 5.59097 19.5315 5.35728 19.6327 5.16809C19.8361 4.58384 19.9217 4.38019 19.9217 4.20436C19.9217 4.02853 19.8061 3.82488 19.6182 3.51884C19.5448 3.42981 19.487 3.29961 19.4592 3.25621C19.4592 3.25621 19.3714 2.78881 19.2991 2.49724C19.1815 2.09556 19.0942 1.68562 19.0378 1.27088L19.0089 1.13734L18.9222 1.05165C18.8488 1.00713 18.4718 0.598715 18.1238 0.598715C17.8625 0.627649 17.7903 0.598715 17.5723 0.802367H17.2832C17.2832 0.802367 17.1665 0.598715 16.8752 0.598715C16.6583 0.598715 16.3681 0.554201 16.2803 0.643229L15.7444 0.68663C15.3663 0.467398 15.1929 0.437351 14.9894 0.437351C14.8582 0.437351 14.7426 0.481866 14.6558 0.511913L14.25 0.334968C13.9009 0.132429 13.7407 0.072335 13.5817 0.072335C12.61 0.102382 11.6081 1.7227 11.6226 2.43826C11.6515 3.4888 12.2897 3.82488 12.799 4.11644C12.8712 4.11644 13.1904 4.26334 13.2626 4.30563C13.3071 4.33568 13.3071 4.42359 13.3494 4.49593C13.5095 4.67176 13.6385 4.68623 13.9298 4.68623C14.1766 4.68623 14.2778 4.46699 14.4379 4.42359C14.4379 4.42359 14.8304 4.77303 15.0761 4.77303C15.2941 4.77303 15.4542 4.59831 15.6276 4.46699L15.7577 4.72963C15.8022 4.88988 15.8311 5.06571 15.8889 5.24154C15.8889 5.24154 16.0635 5.69336 16.2225 5.91148L16.3392 6.20416C16.267 6.33548 16.0779 6.4679 16.0779 6.64262C16.0779 6.75836 16.2091 6.9353 16.2369 7.05104C16.267 7.18236 16.2814 7.38712 16.267 7.47392L16.1502 7.7666C16.0387 7.91409 15.9775 8.09356 15.9756 8.27852C16.0057 8.62795 16.1936 8.86054 16.3248 9.00744C16.4404 9.13875 16.4838 9.18327 16.4838 9.30012C16.4838 9.30012 16.4104 9.50266 16.3681 9.60504C16.3237 9.7664 16.2803 9.91219 16.2514 10.0724C16.1647 10.4519 16.2225 10.8614 16.3248 11.1386C16.3248 11.2109 16.4104 11.6783 16.4104 11.7228L16.3681 12.7444C16.3681 12.9492 16.3392 13.1239 16.3392 13.2986C16.3091 13.4825 16.2942 13.6686 16.2948 13.855C16.2503 14.1599 16.2091 14.4816 16.2091 14.7876L16.4538 15.0658C16.4982 15.1537 16.3103 15.4308 16.3103 15.4742C16.3103 15.5466 16.3826 15.6935 16.3103 15.8103C16.2659 15.9416 16.2225 16.103 16.2225 16.2777C16.1936 16.5403 16.1791 16.8174 16.1502 17.0656C16.1213 17.2403 16.1069 17.4162 16.1213 17.533C16.0913 17.6499 16.0768 17.7812 16.0768 17.8836C16.049 18.0438 15.9034 18.3354 15.8322 18.3932L15.4253 18.263C15.1195 18.1317 15.0472 18.2185 14.9316 18.2185C14.8582 18.2185 14.6847 18.1317 14.598 18.1462C14.3512 18.1907 14.3945 18.263 14.3512 18.263C14.3512 18.263 14.2633 18.233 14.1766 18.1896C14.1126 18.1761 14.048 18.1649 13.9831 18.1562V18.1573ZM70.8964 9.38803C71.26 9.56275 71.3033 10.0446 71.3033 10.3952C71.3033 10.7446 71.0999 10.906 70.9253 11.242C70.7518 11.577 70.4316 11.4312 70.2582 11.5191C69.6344 11.7818 68.9239 11.9131 68.6481 11.9131C68.4725 11.9131 67.6319 11.5637 67.4429 11.5637C67.226 11.5637 66.9358 11.7384 66.7179 11.7384C66.5433 11.7384 66.1664 11.4757 65.9629 11.4757C65.745 11.4757 65.1802 11.636 64.9622 11.636C64.4541 11.636 64.3385 11.4613 64.3385 11.0963C64.3385 10.7301 64.672 9.9133 65.2958 9.73858C65.4704 9.66513 65.8473 9.81092 66.0797 9.62062C66.1664 9.50377 66.2398 9.06642 66.4855 8.94957C67.037 8.59902 68.2412 8.26405 68.4447 8.26405C68.6915 8.26405 69.0251 8.52668 69.2708 8.71587C69.4465 8.76038 69.6778 8.68693 69.8234 8.76038C70.1281 8.92063 70.5917 9.24114 70.8964 9.38803ZM9.21424 15.7235L9.0986 16.8186C9.0986 17.0367 8.56156 17.1535 8.31472 17.3728C8.14015 17.4618 7.73431 17.7522 7.73431 17.7522C7.61756 17.8257 7.42966 17.9559 6.90707 18.8473C6.87816 18.9207 6.73361 19.0231 6.68914 19.0231C6.66023 19.0231 6.55793 18.9942 6.47232 18.9786C6.26513 18.951 6.05644 18.9361 5.84743 18.9341C5.71734 18.9341 5.4705 19.0086 5.09357 19.111C4.97794 19.1377 4.90455 19.2857 4.83228 19.3147C4.80337 19.2702 4.44089 19.1978 4.39753 19.1689C4.06396 18.9486 4.22296 18.9486 3.94721 18.9486L3.4969 18.8484C3.25006 18.7315 3.20781 18.4823 2.97431 18.1896C2.90315 18.1173 2.98876 17.8702 2.90315 17.809C2.7864 17.7233 2.98876 17.5909 2.98876 17.4306C2.98876 17.4306 2.85867 17.1969 3.14888 16.9065C3.35235 16.6127 3.39571 16.4814 3.39571 16.4814L3.74485 16.4969C3.74485 16.4969 3.96167 16.3055 4.03394 16.2777L4.601 16.0741C4.76 15.9561 4.84562 15.8693 4.93457 15.8114C4.97794 15.8114 5.09357 15.7669 5.34041 15.7669C5.51387 15.7669 5.68843 15.5633 5.89191 15.5911C5.89191 15.5911 6.51568 15.6645 6.77697 15.6645C7.03716 15.6645 7.82215 15.4609 8.50374 15.1971C8.57601 15.1548 8.72056 15.1248 8.76504 15.1103C8.83731 15.1404 8.89513 15.0658 8.89513 15.0814C9.01188 15.1103 9.06969 15.0525 9.0986 15.1248C9.0986 15.1248 9.18533 15.3863 9.21424 15.7235Z" fill="#F6F2F1"/>
</svg>
