<?xml version="1.0"?>
<svg xmlns="http://www.w3.org/2000/svg" width="914" height="47" viewBox="0 0 914 47" fill="none">
<path d="M2 25.4L15.6667 36.3334L34.8001 9" stroke="black" stroke-width="5.33002"/>
<path d="M66.489 20.661C66.489 21.995 66.029 23.1067 65.109 23.996C64.2043 24.87 62.8167 25.307 60.946 25.307H57.864V32H55.771V15.969H60.946C62.7553 15.969 64.1277 16.406 65.063 17.28C66.0137 18.154 66.489 19.281 66.489 20.661ZM60.946 23.582C62.1113 23.582 62.97 23.329 63.522 22.823C64.074 22.317 64.35 21.5963 64.35 20.661C64.35 18.683 63.2153 17.694 60.946 17.694H57.864V23.582H60.946ZM68.3083 25.652C68.3083 24.364 68.569 23.237 69.0903 22.271C69.6117 21.2897 70.3247 20.5307 71.2293 19.994C72.1493 19.4573 73.169 19.189 74.2883 19.189C75.3923 19.189 76.3507 19.4267 77.1633 19.902C77.976 20.3773 78.5817 20.9753 78.9803 21.696V19.396H81.0963V32H78.9803V29.654C78.5663 30.39 77.9453 31.0033 77.1173 31.494C76.3047 31.9693 75.354 32.207 74.2653 32.207C73.146 32.207 72.134 31.931 71.2293 31.379C70.3247 30.827 69.6117 30.0527 69.0903 29.056C68.569 28.0593 68.3083 26.9247 68.3083 25.652ZM78.9803 25.675C78.9803 24.7243 78.7887 23.8963 78.4053 23.191C78.022 22.4857 77.5007 21.949 76.8413 21.581C76.1973 21.1977 75.4843 21.006 74.7023 21.006C73.9203 21.006 73.2073 21.19 72.5633 21.558C71.9193 21.926 71.4057 22.4627 71.0223 23.168C70.639 23.8733 70.4473 24.7013 70.4473 25.652C70.4473 26.618 70.639 27.4613 71.0223 28.182C71.4057 28.8873 71.9193 29.4317 72.5633 29.815C73.2073 30.183 73.9203 30.367 74.7023 30.367C75.4843 30.367 76.1973 30.183 76.8413 29.815C77.5007 29.4317 78.022 28.8873 78.4053 28.182C78.7887 27.4613 78.9803 26.6257 78.9803 25.675ZM86.7263 21.443C87.0943 20.7223 87.6156 20.1627 88.2903 19.764C88.9803 19.3653 89.816 19.166 90.7973 19.166V21.328H90.2453C87.8993 21.328 86.7263 22.6007 86.7263 25.146V32H84.6333V19.396H86.7263V21.443ZM92.4314 25.652C92.4314 24.364 92.692 23.237 93.2134 22.271C93.7347 21.2897 94.4477 20.5307 95.3524 19.994C96.2724 19.4573 97.292 19.189 98.4114 19.189C99.5154 19.189 100.474 19.4267 101.286 19.902C102.099 20.3773 102.705 20.9753 103.103 21.696V19.396H105.219V32H103.103V29.654C102.689 30.39 102.068 31.0033 101.24 31.494C100.428 31.9693 99.477 32.207 98.3884 32.207C97.269 32.207 96.257 31.931 95.3524 31.379C94.4477 30.827 93.7347 30.0527 93.2134 29.056C92.692 28.0593 92.4314 26.9247 92.4314 25.652ZM103.103 25.675C103.103 24.7243 102.912 23.8963 102.528 23.191C102.145 22.4857 101.624 21.949 100.964 21.581C100.32 21.1977 99.6074 21.006 98.8254 21.006C98.0434 21.006 97.3304 21.19 96.6864 21.558C96.0424 21.926 95.5287 22.4627 95.1454 23.168C94.762 23.8733 94.5704 24.7013 94.5704 25.652C94.5704 26.618 94.762 27.4613 95.1454 28.182C95.5287 28.8873 96.0424 29.4317 96.6864 29.815C97.3304 30.183 98.0434 30.367 98.8254 30.367C99.6074 30.367 100.32 30.183 100.964 29.815C101.624 29.4317 102.145 28.8873 102.528 28.182C102.912 27.4613 103.103 26.6257 103.103 25.675ZM110.849 21.742C111.279 20.9907 111.907 20.3773 112.735 19.902C113.563 19.4267 114.506 19.189 115.564 19.189C116.699 19.189 117.719 19.4573 118.623 19.994C119.528 20.5307 120.241 21.2897 120.762 22.271C121.284 23.237 121.544 24.364 121.544 25.652C121.544 26.9247 121.284 28.0593 120.762 29.056C120.241 30.0527 119.52 30.827 118.6 31.379C117.696 31.931 116.684 32.207 115.564 32.207C114.476 32.207 113.517 31.9693 112.689 31.494C111.877 31.0187 111.263 30.413 110.849 29.677V32H108.756V14.98H110.849V21.742ZM119.405 25.652C119.405 24.7013 119.214 23.8733 118.83 23.168C118.447 22.4627 117.926 21.926 117.266 21.558C116.622 21.19 115.909 21.006 115.127 21.006C114.361 21.006 113.648 21.1977 112.988 21.581C112.344 21.949 111.823 22.4933 111.424 23.214C111.041 23.9193 110.849 24.7397 110.849 25.675C110.849 26.6257 111.041 27.4613 111.424 28.182C111.823 28.8873 112.344 29.4317 112.988 29.815C113.648 30.183 114.361 30.367 115.127 30.367C115.909 30.367 116.622 30.183 117.266 29.815C117.926 29.4317 118.447 28.8873 118.83 28.182C119.214 27.4613 119.405 26.618 119.405 25.652ZM135.799 25.215C135.799 25.6137 135.776 26.0353 135.73 26.48H125.656C125.733 27.722 126.155 28.6957 126.921 29.401C127.703 30.091 128.646 30.436 129.75 30.436C130.655 30.436 131.406 30.229 132.004 29.815C132.618 29.3857 133.047 28.8183 133.292 28.113H135.546C135.209 29.3243 134.534 30.3133 133.522 31.08C132.51 31.8313 131.253 32.207 129.75 32.207C128.554 32.207 127.481 31.9387 126.53 31.402C125.595 30.8653 124.859 30.1063 124.322 29.125C123.786 28.1283 123.517 26.9783 123.517 25.675C123.517 24.3717 123.778 23.2293 124.299 22.248C124.821 21.2667 125.549 20.5153 126.484 19.994C127.435 19.4573 128.524 19.189 129.75 19.189C130.946 19.189 132.004 19.4497 132.924 19.971C133.844 20.4923 134.55 21.213 135.04 22.133C135.546 23.0377 135.799 24.065 135.799 25.215ZM133.637 24.778C133.637 23.9807 133.461 23.2983 133.108 22.731C132.756 22.1483 132.273 21.7113 131.659 21.42C131.061 21.1133 130.394 20.96 129.658 20.96C128.6 20.96 127.696 21.2973 126.944 21.972C126.208 22.6467 125.787 23.582 125.679 24.778H133.637ZM144.703 19.166C146.236 19.166 147.478 19.6337 148.429 20.569C149.38 21.489 149.855 22.823 149.855 24.571V32H147.785V24.87C147.785 23.6127 147.471 22.6543 146.842 21.995C146.213 21.3203 145.355 20.983 144.266 20.983C143.162 20.983 142.28 21.328 141.621 22.018C140.977 22.708 140.655 23.7123 140.655 25.031V32H138.562V19.396H140.655V21.19C141.069 20.546 141.629 20.0477 142.334 19.695C143.055 19.3423 143.844 19.166 144.703 19.166ZM162.014 22.685V24.456H152.837V22.685H162.014ZM171.071 21.121H168.426V32H166.333V21.121H164.7V19.396H166.333V18.499C166.333 17.0883 166.693 16.061 167.414 15.417C168.15 14.7577 169.323 14.428 170.933 14.428V16.176C170.013 16.176 169.361 16.36 168.978 16.728C168.61 17.0807 168.426 17.671 168.426 18.499V19.396H171.071V21.121ZM175.604 21.443C175.972 20.7223 176.494 20.1627 177.168 19.764C177.858 19.3653 178.694 19.166 179.675 19.166V21.328H179.123C176.777 21.328 175.604 22.6007 175.604 25.146V32H173.511V19.396H175.604V21.443ZM193.591 25.215C193.591 25.6137 193.568 26.0353 193.522 26.48H183.448C183.525 27.722 183.947 28.6957 184.713 29.401C185.495 30.091 186.438 30.436 187.542 30.436C188.447 30.436 189.198 30.229 189.796 29.815C190.41 29.3857 190.839 28.8183 191.084 28.113H193.338C193.001 29.3243 192.326 30.3133 191.314 31.08C190.302 31.8313 189.045 32.207 187.542 32.207C186.346 32.207 185.273 31.9387 184.322 31.402C183.387 30.8653 182.651 30.1063 182.114 29.125C181.578 28.1283 181.309 26.9783 181.309 25.675C181.309 24.3717 181.57 23.2293 182.091 22.248C182.613 21.2667 183.341 20.5153 184.276 19.994C185.227 19.4573 186.316 19.189 187.542 19.189C188.738 19.189 189.796 19.4497 190.716 19.971C191.636 20.4923 192.342 21.213 192.832 22.133C193.338 23.0377 193.591 24.065 193.591 25.215ZM191.429 24.778C191.429 23.9807 191.253 23.2983 190.9 22.731C190.548 22.1483 190.065 21.7113 189.451 21.42C188.853 21.1133 188.186 20.96 187.45 20.96C186.392 20.96 185.488 21.2973 184.736 21.972C184 22.6467 183.579 23.582 183.471 24.778H191.429ZM207.854 25.215C207.854 25.6137 207.831 26.0353 207.785 26.48H197.711C197.788 27.722 198.209 28.6957 198.976 29.401C199.758 30.091 200.701 30.436 201.805 30.436C202.71 30.436 203.461 30.229 204.059 29.815C204.672 29.3857 205.102 28.8183 205.347 28.113H207.601C207.264 29.3243 206.589 30.3133 205.577 31.08C204.565 31.8313 203.308 32.207 201.805 32.207C200.609 32.207 199.536 31.9387 198.585 31.402C197.65 30.8653 196.914 30.1063 196.377 29.125C195.84 28.1283 195.572 26.9783 195.572 25.675C195.572 24.3717 195.833 23.2293 196.354 22.248C196.875 21.2667 197.604 20.5153 198.539 19.994C199.49 19.4573 200.578 19.189 201.805 19.189C203.001 19.189 204.059 19.4497 204.979 19.971C205.899 20.4923 206.604 21.213 207.095 22.133C207.601 23.0377 207.854 24.065 207.854 25.215ZM205.692 24.778C205.692 23.9807 205.516 23.2983 205.163 22.731C204.81 22.1483 204.327 21.7113 203.714 21.42C203.116 21.1133 202.449 20.96 201.713 20.96C200.655 20.96 199.75 21.2973 198.999 21.972C198.263 22.6467 197.841 23.582 197.734 24.778H205.692Z" fill="black"/>
<path d="M332 25.4L345.667 36.3334L364.8 9" stroke="black" stroke-width="5.33002"/>
<path d="M384.989 23.973C384.989 22.409 385.342 21.006 386.047 19.764C386.752 18.5067 387.711 17.5253 388.922 16.82C390.149 16.1147 391.506 15.762 392.993 15.762C394.741 15.762 396.267 16.1837 397.57 17.027C398.873 17.8703 399.824 19.0663 400.422 20.615H397.915C397.47 19.649 396.826 18.9053 395.983 18.384C395.155 17.8627 394.158 17.602 392.993 17.602C391.874 17.602 390.869 17.8627 389.98 18.384C389.091 18.9053 388.393 19.649 387.887 20.615C387.381 21.5657 387.128 22.685 387.128 23.973C387.128 25.2457 387.381 26.365 387.887 27.331C388.393 28.2817 389.091 29.0177 389.98 29.539C390.869 30.0603 391.874 30.321 392.993 30.321C394.158 30.321 395.155 30.068 395.983 29.562C396.826 29.0407 397.47 28.297 397.915 27.331H400.422C399.824 28.8643 398.873 30.0527 397.57 30.896C396.267 31.724 394.741 32.138 392.993 32.138C391.506 32.138 390.149 31.793 388.922 31.103C387.711 30.3977 386.752 29.424 386.047 28.182C385.342 26.94 384.989 25.537 384.989 23.973ZM405.631 21.443C405.999 20.7223 406.52 20.1627 407.195 19.764C407.885 19.3653 408.72 19.166 409.702 19.166V21.328H409.15C406.804 21.328 405.631 22.6007 405.631 25.146V32H403.538V19.396H405.631V21.443ZM423.296 19.396V32H421.203V30.137C420.804 30.781 420.244 31.287 419.524 31.655C418.818 32.0077 418.036 32.184 417.178 32.184C416.196 32.184 415.315 31.9847 414.533 31.586C413.751 31.172 413.13 30.5587 412.67 29.746C412.225 28.9333 412.003 27.9443 412.003 26.779V19.396H414.073V26.503C414.073 27.745 414.387 28.7033 415.016 29.378C415.644 30.0373 416.503 30.367 417.592 30.367C418.711 30.367 419.593 30.022 420.237 29.332C420.881 28.642 421.203 27.6377 421.203 26.319V19.396H423.296ZM438.33 25.215C438.33 25.6137 438.307 26.0353 438.261 26.48H428.187C428.263 27.722 428.685 28.6957 429.452 29.401C430.234 30.091 431.177 30.436 432.281 30.436C433.185 30.436 433.937 30.229 434.535 29.815C435.148 29.3857 435.577 28.8183 435.823 28.113H438.077C437.739 29.3243 437.065 30.3133 436.053 31.08C435.041 31.8313 433.783 32.207 432.281 32.207C431.085 32.207 430.011 31.9387 429.061 31.402C428.125 30.8653 427.389 30.1063 426.853 29.125C426.316 28.1283 426.048 26.9783 426.048 25.675C426.048 24.3717 426.308 23.2293 426.83 22.248C427.351 21.2667 428.079 20.5153 429.015 19.994C429.965 19.4573 431.054 19.189 432.281 19.189C433.477 19.189 434.535 19.4497 435.455 19.971C436.375 20.4923 437.08 21.213 437.571 22.133C438.077 23.0377 438.33 24.065 438.33 25.215ZM436.168 24.778C436.168 23.9807 435.991 23.2983 435.639 22.731C435.286 22.1483 434.803 21.7113 434.19 21.42C433.592 21.1133 432.925 20.96 432.189 20.96C431.131 20.96 430.226 21.2973 429.475 21.972C428.739 22.6467 428.317 23.582 428.21 24.778H436.168ZM443.185 14.98V32H441.092V14.98H443.185ZM449.305 21.121V28.55C449.305 29.1633 449.436 29.6003 449.696 29.861C449.957 30.1063 450.409 30.229 451.053 30.229H452.594V32H450.708C449.543 32 448.669 31.7317 448.086 31.195C447.504 30.6583 447.212 29.7767 447.212 28.55V21.121H445.579V19.396H447.212V16.222H449.305V19.396H452.594V21.121H449.305ZM465.986 19.396L458.396 37.934H456.234L458.718 31.862L453.635 19.396H455.958L459.914 29.608L463.824 19.396H465.986ZM476.83 22.685V24.456H467.653V22.685H476.83ZM485.887 21.121H483.242V32H481.149V21.121H479.516V19.396H481.149V18.499C481.149 17.0883 481.51 16.061 482.23 15.417C482.966 14.7577 484.139 14.428 485.749 14.428V16.176C484.829 16.176 484.178 16.36 483.794 16.728C483.426 17.0807 483.242 17.671 483.242 18.499V19.396H485.887V21.121ZM490.421 21.443C490.789 20.7223 491.31 20.1627 491.985 19.764C492.675 19.3653 493.51 19.166 494.492 19.166V21.328H493.94C491.594 21.328 490.421 22.6007 490.421 25.146V32H488.328V19.396H490.421V21.443ZM508.408 25.215C508.408 25.6137 508.385 26.0353 508.339 26.48H498.265C498.341 27.722 498.763 28.6957 499.53 29.401C500.312 30.091 501.255 30.436 502.359 30.436C503.263 30.436 504.015 30.229 504.613 29.815C505.226 29.3857 505.655 28.8183 505.901 28.113H508.155C507.817 29.3243 507.143 30.3133 506.131 31.08C505.119 31.8313 503.861 32.207 502.359 32.207C501.163 32.207 500.089 31.9387 499.139 31.402C498.203 30.8653 497.467 30.1063 496.931 29.125C496.394 28.1283 496.126 26.9783 496.126 25.675C496.126 24.3717 496.386 23.2293 496.908 22.248C497.429 21.2667 498.157 20.5153 499.093 19.994C500.043 19.4573 501.132 19.189 502.359 19.189C503.555 19.189 504.613 19.4497 505.533 19.971C506.453 20.4923 507.158 21.213 507.649 22.133C508.155 23.0377 508.408 24.065 508.408 25.215ZM506.246 24.778C506.246 23.9807 506.069 23.2983 505.717 22.731C505.364 22.1483 504.881 21.7113 504.268 21.42C503.67 21.1133 503.003 20.96 502.267 20.96C501.209 20.96 500.304 21.2973 499.553 21.972C498.817 22.6467 498.395 23.582 498.288 24.778H506.246ZM522.67 25.215C522.67 25.6137 522.647 26.0353 522.601 26.48H512.527C512.604 27.722 513.026 28.6957 513.792 29.401C514.574 30.091 515.517 30.436 516.621 30.436C517.526 30.436 518.277 30.229 518.875 29.815C519.489 29.3857 519.918 28.8183 520.163 28.113H522.417C522.08 29.3243 521.405 30.3133 520.393 31.08C519.381 31.8313 518.124 32.207 516.621 32.207C515.425 32.207 514.352 31.9387 513.401 31.402C512.466 30.8653 511.73 30.1063 511.193 29.125C510.657 28.1283 510.388 26.9783 510.388 25.675C510.388 24.3717 510.649 23.2293 511.17 22.248C511.692 21.2667 512.42 20.5153 513.355 19.994C514.306 19.4573 515.395 19.189 516.621 19.189C517.817 19.189 518.875 19.4497 519.795 19.971C520.715 20.4923 521.421 21.213 521.911 22.133C522.417 23.0377 522.67 24.065 522.67 25.215ZM520.508 24.778C520.508 23.9807 520.332 23.2983 519.979 22.731C519.627 22.1483 519.144 21.7113 518.53 21.42C517.932 21.1133 517.265 20.96 516.529 20.96C515.471 20.96 514.567 21.2973 513.815 21.972C513.079 22.6467 512.658 23.582 512.55 24.778H520.508Z" fill="black"/>
<path d="M662 25.4L675.667 36.3334L694.8 9" stroke="black" stroke-width="5.33002"/>
<path d="M724.833 15.969V17.671H717.864V23.076H723.522V24.778H717.864V32H715.771V15.969H724.833ZM729.454 21.443C729.822 20.7223 730.343 20.1627 731.018 19.764C731.708 19.3653 732.544 19.166 733.525 19.166V21.328H732.973C730.627 21.328 729.454 22.6007 729.454 25.146V32H727.361V19.396H729.454V21.443ZM735.159 25.652C735.159 24.364 735.42 23.237 735.941 22.271C736.462 21.2897 737.175 20.5307 738.08 19.994C739 19.4573 740.02 19.189 741.139 19.189C742.243 19.189 743.201 19.4267 744.014 19.902C744.827 20.3773 745.432 20.9753 745.831 21.696V19.396H747.947V32H745.831V29.654C745.417 30.39 744.796 31.0033 743.968 31.494C743.155 31.9693 742.205 32.207 741.116 32.207C739.997 32.207 738.985 31.931 738.08 31.379C737.175 30.827 736.462 30.0527 735.941 29.056C735.42 28.0593 735.159 26.9247 735.159 25.652ZM745.831 25.675C745.831 24.7243 745.639 23.8963 745.256 23.191C744.873 22.4857 744.351 21.949 743.692 21.581C743.048 21.1977 742.335 21.006 741.553 21.006C740.771 21.006 740.058 21.19 739.414 21.558C738.77 21.926 738.256 22.4627 737.873 23.168C737.49 23.8733 737.298 24.7013 737.298 25.652C737.298 26.618 737.49 27.4613 737.873 28.182C738.256 28.8873 738.77 29.4317 739.414 29.815C740.058 30.183 740.771 30.367 741.553 30.367C742.335 30.367 743.048 30.183 743.692 29.815C744.351 29.4317 744.873 28.8873 745.256 28.182C745.639 27.4613 745.831 26.6257 745.831 25.675ZM756.682 19.189C757.771 19.189 758.721 19.4267 759.534 19.902C760.362 20.3773 760.975 20.9753 761.374 21.696V19.396H763.49V32.276C763.49 33.426 763.245 34.4457 762.754 35.335C762.263 36.2397 761.558 36.945 760.638 37.451C759.733 37.957 758.675 38.21 757.464 38.21C755.808 38.21 754.428 37.819 753.324 37.037C752.22 36.255 751.568 35.1893 751.369 33.84H753.439C753.669 34.6067 754.144 35.22 754.865 35.68C755.586 36.1553 756.452 36.393 757.464 36.393C758.614 36.393 759.549 36.0327 760.27 35.312C761.006 34.5913 761.374 33.5793 761.374 32.276V29.631C760.96 30.367 760.347 30.9803 759.534 31.471C758.721 31.9617 757.771 32.207 756.682 32.207C755.563 32.207 754.543 31.931 753.623 31.379C752.718 30.827 752.005 30.0527 751.484 29.056C750.963 28.0593 750.702 26.9247 750.702 25.652C750.702 24.364 750.963 23.237 751.484 22.271C752.005 21.2897 752.718 20.5307 753.623 19.994C754.543 19.4573 755.563 19.189 756.682 19.189ZM761.374 25.675C761.374 24.7243 761.182 23.8963 760.799 23.191C760.416 22.4857 759.894 21.949 759.235 21.581C758.591 21.1977 757.878 21.006 757.096 21.006C756.314 21.006 755.601 21.19 754.957 21.558C754.313 21.926 753.799 22.4627 753.416 23.168C753.033 23.8733 752.841 24.7013 752.841 25.652C752.841 26.618 753.033 27.4613 753.416 28.182C753.799 28.8873 754.313 29.4317 754.957 29.815C755.601 30.183 756.314 30.367 757.096 30.367C757.878 30.367 758.591 30.183 759.235 29.815C759.894 29.4317 760.416 28.8873 760.799 28.182C761.182 27.4613 761.374 26.6257 761.374 25.675ZM769.12 21.443C769.488 20.7223 770.009 20.1627 770.684 19.764C771.374 19.3653 772.21 19.166 773.191 19.166V21.328H772.639C770.293 21.328 769.12 22.6007 769.12 25.146V32H767.027V19.396H769.12V21.443ZM774.825 25.652C774.825 24.364 775.086 23.237 775.607 22.271C776.128 21.2897 776.841 20.5307 777.746 19.994C778.666 19.4573 779.686 19.189 780.805 19.189C781.909 19.189 782.867 19.4267 783.68 19.902C784.493 20.3773 785.098 20.9753 785.497 21.696V19.396H787.613V32H785.497V29.654C785.083 30.39 784.462 31.0033 783.634 31.494C782.821 31.9693 781.871 32.207 780.782 32.207C779.663 32.207 778.651 31.931 777.746 31.379C776.841 30.827 776.128 30.0527 775.607 29.056C775.086 28.0593 774.825 26.9247 774.825 25.652ZM785.497 25.675C785.497 24.7243 785.305 23.8963 784.922 23.191C784.539 22.4857 784.017 21.949 783.358 21.581C782.714 21.1977 782.001 21.006 781.219 21.006C780.437 21.006 779.724 21.19 779.08 21.558C778.436 21.926 777.922 22.4627 777.539 23.168C777.156 23.8733 776.964 24.7013 776.964 25.652C776.964 26.618 777.156 27.4613 777.539 28.182C777.922 28.8873 778.436 29.4317 779.08 29.815C779.724 30.183 780.437 30.367 781.219 30.367C782.001 30.367 782.714 30.183 783.358 29.815C784.017 29.4317 784.539 28.8873 784.922 28.182C785.305 27.4613 785.497 26.6257 785.497 25.675ZM797.291 19.166C798.824 19.166 800.066 19.6337 801.017 20.569C801.968 21.489 802.443 22.823 802.443 24.571V32H800.373V24.87C800.373 23.6127 800.059 22.6543 799.43 21.995C798.801 21.3203 797.943 20.983 796.854 20.983C795.75 20.983 794.868 21.328 794.209 22.018C793.565 22.708 793.243 23.7123 793.243 25.031V32H791.15V19.396H793.243V21.19C793.657 20.546 794.217 20.0477 794.922 19.695C795.643 19.3423 796.432 19.166 797.291 19.166ZM805.08 25.675C805.08 24.3717 805.34 23.237 805.862 22.271C806.383 21.2897 807.104 20.5307 808.024 19.994C808.959 19.4573 810.025 19.189 811.221 19.189C812.769 19.189 814.042 19.5647 815.039 20.316C816.051 21.0673 816.718 22.11 817.04 23.444H814.786C814.571 22.6773 814.149 22.0717 813.521 21.627C812.907 21.1823 812.141 20.96 811.221 20.96C810.025 20.96 809.059 21.374 808.323 22.202C807.587 23.0147 807.219 24.1723 807.219 25.675C807.219 27.193 807.587 28.366 808.323 29.194C809.059 30.022 810.025 30.436 811.221 30.436C812.141 30.436 812.907 30.2213 813.521 29.792C814.134 29.3627 814.556 28.7493 814.786 27.952H817.04C816.702 29.24 816.028 30.275 815.016 31.057C814.004 31.8237 812.739 32.207 811.221 32.207C810.025 32.207 808.959 31.9387 808.024 31.402C807.104 30.8653 806.383 30.1063 805.862 29.125C805.34 28.1437 805.08 26.9937 805.08 25.675ZM831.333 25.215C831.333 25.6137 831.31 26.0353 831.264 26.48H821.19C821.266 27.722 821.688 28.6957 822.455 29.401C823.237 30.091 824.18 30.436 825.284 30.436C826.188 30.436 826.94 30.229 827.538 29.815C828.151 29.3857 828.58 28.8183 828.826 28.113H831.08C830.742 29.3243 830.068 30.3133 829.056 31.08C828.044 31.8313 826.786 32.207 825.284 32.207C824.088 32.207 823.014 31.9387 822.064 31.402C821.128 30.8653 820.392 30.1063 819.856 29.125C819.319 28.1283 819.051 26.9783 819.051 25.675C819.051 24.3717 819.311 23.2293 819.833 22.248C820.354 21.2667 821.082 20.5153 822.018 19.994C822.968 19.4573 824.057 19.189 825.284 19.189C826.48 19.189 827.538 19.4497 828.458 19.971C829.378 20.4923 830.083 21.213 830.574 22.133C831.08 23.0377 831.333 24.065 831.333 25.215ZM829.171 24.778C829.171 23.9807 828.994 23.2983 828.642 22.731C828.289 22.1483 827.806 21.7113 827.193 21.42C826.595 21.1133 825.928 20.96 825.192 20.96C824.134 20.96 823.229 21.2973 822.478 21.972C821.742 22.6467 821.32 23.582 821.213 24.778H829.171ZM842.835 22.685V24.456H833.658V22.685H842.835ZM851.892 21.121H849.247V32H847.154V21.121H845.521V19.396H847.154V18.499C847.154 17.0883 847.515 16.061 848.235 15.417C848.971 14.7577 850.144 14.428 851.754 14.428V16.176C850.834 16.176 850.183 16.36 849.799 16.728C849.431 17.0807 849.247 17.671 849.247 18.499V19.396H851.892V21.121ZM856.426 21.443C856.794 20.7223 857.315 20.1627 857.99 19.764C858.68 19.3653 859.515 19.166 860.497 19.166V21.328H859.945C857.599 21.328 856.426 22.6007 856.426 25.146V32H854.333V19.396H856.426V21.443ZM874.413 25.215C874.413 25.6137 874.39 26.0353 874.344 26.48H864.27C864.346 27.722 864.768 28.6957 865.535 29.401C866.317 30.091 867.26 30.436 868.364 30.436C869.268 30.436 870.02 30.229 870.618 29.815C871.231 29.3857 871.66 28.8183 871.906 28.113H874.16C873.822 29.3243 873.148 30.3133 872.136 31.08C871.124 31.8313 869.866 32.207 868.364 32.207C867.168 32.207 866.094 31.9387 865.144 31.402C864.208 30.8653 863.472 30.1063 862.936 29.125C862.399 28.1283 862.131 26.9783 862.131 25.675C862.131 24.3717 862.391 23.2293 862.913 22.248C863.434 21.2667 864.162 20.5153 865.098 19.994C866.048 19.4573 867.137 19.189 868.364 19.189C869.56 19.189 870.618 19.4497 871.538 19.971C872.458 20.4923 873.163 21.213 873.654 22.133C874.16 23.0377 874.413 24.065 874.413 25.215ZM872.251 24.778C872.251 23.9807 872.074 23.2983 871.722 22.731C871.369 22.1483 870.886 21.7113 870.273 21.42C869.675 21.1133 869.008 20.96 868.272 20.96C867.214 20.96 866.309 21.2973 865.558 21.972C864.822 22.6467 864.4 23.582 864.293 24.778H872.251ZM888.675 25.215C888.675 25.6137 888.652 26.0353 888.606 26.48H878.532C878.609 27.722 879.031 28.6957 879.797 29.401C880.579 30.091 881.522 30.436 882.626 30.436C883.531 30.436 884.282 30.229 884.88 29.815C885.494 29.3857 885.923 28.8183 886.168 28.113H888.422C888.085 29.3243 887.41 30.3133 886.398 31.08C885.386 31.8313 884.129 32.207 882.626 32.207C881.43 32.207 880.357 31.9387 879.406 31.402C878.471 30.8653 877.735 30.1063 877.198 29.125C876.662 28.1283 876.393 26.9783 876.393 25.675C876.393 24.3717 876.654 23.2293 877.175 22.248C877.697 21.2667 878.425 20.5153 879.36 19.994C880.311 19.4573 881.4 19.189 882.626 19.189C883.822 19.189 884.88 19.4497 885.8 19.971C886.72 20.4923 887.426 21.213 887.916 22.133C888.422 23.0377 888.675 24.065 888.675 25.215ZM886.513 24.778C886.513 23.9807 886.337 23.2983 885.984 22.731C885.632 22.1483 885.149 21.7113 884.535 21.42C883.937 21.1133 883.27 20.96 882.534 20.96C881.476 20.96 880.572 21.2973 879.82 21.972C879.084 22.6467 878.663 23.582 878.555 24.778H886.513Z" fill="black"/>
</svg>
