<?xml version="1.0"?>
<svg xmlns="http://www.w3.org/2000/svg" width="125" height="22" viewBox="0 0 125 22" fill="none">
<path d="M0 0.012709C3.49737 0.0172649 6.99612 -0.0352273 10.4918 0.0448976C13.1864 0.1067 15.2977 1.93699 15.7522 4.43701C16.2666 7.26703 14.7982 9.68345 12.533 10.3319C12.4754 10.3483 12.4286 10.4017 12.3512 10.4557C14.5104 11.0738 15.7993 12.503 16.1621 14.6442C16.7606 18.177 14.812 21.0799 11.1305 21.4906C10.314 21.5815 9.48494 21.5793 8.66151 21.5835C5.77444 21.5989 2.88717 21.5984 9.89874e-05 21.6039L0 0.012709ZM4.64952 17.4818C4.70954 17.5024 4.76946 17.5409 4.82918 17.5409C6.27836 17.5433 7.73012 17.5947 9.17613 17.5262C10.6725 17.4552 11.5622 16.5356 11.6019 15.1804C11.6418 13.8187 10.8199 12.8366 9.3545 12.6607C8.42816 12.5495 7.48202 12.6005 6.54469 12.5874C5.92359 12.5787 5.30221 12.5858 4.64952 12.5858V17.4818V17.4818ZM4.61783 8.56824C5.96876 8.56824 7.25145 8.57052 8.53414 8.56626C8.78095 8.56537 9.03341 8.56745 9.27349 8.51912C10.1792 8.33728 10.8613 7.87287 11.0985 6.9288C11.4768 5.42366 10.5175 4.12334 8.96012 4.04619C8.23602 4.01043 7.50896 4.03628 6.78328 4.03559C6.07949 4.0347 5.3755 4.03539 4.64982 4.03539C4.63536 4.19128 4.61901 4.28636 4.61892 4.38144C4.61723 5.74872 4.61783 7.11599 4.61783 8.56824ZM83.3932 22C82.8464 21.8984 82.2941 21.8204 81.754 21.6909C77.5254 20.6774 75.3707 17.0378 75.7402 13.0162C76.0497 9.64889 77.7472 7.1871 80.9804 6.04743C85.4943 4.45622 90.7292 6.60454 91.5015 12.6107C91.6034 13.4043 91.5985 14.2115 91.647 15.0837H79.9898C80.26 16.5634 81.0062 17.6015 82.3073 18.1532C84.4217 19.0499 86.4024 18.603 88.27 17.401C88.3803 17.33 88.4821 17.2456 88.5894 17.1692C88.6 17.1617 88.6208 17.1682 88.6955 17.1682C89.2669 18.0092 89.8568 18.8777 90.5197 19.8537C89.9184 20.2287 89.3637 20.6353 88.7577 20.9398C87.6431 21.4998 86.4447 21.7968 85.1995 21.9005C85.0576 21.9122 84.9195 21.9657 84.7796 21.9999L83.3932 22V22ZM87.6234 12.2416C87.7045 10.3025 85.857 8.82159 83.5178 8.9139C81.5721 8.99065 79.8424 10.6384 80.05 12.2416H87.6234ZM100.131 22C99.4586 21.8646 98.7749 21.7689 98.115 21.5869C94.9636 20.7175 92.7895 18.0525 92.5036 14.7953C92.2335 11.7229 93.1242 9.11911 95.5905 7.18086C99.3279 4.24378 106.673 4.91003 108.132 11.8593C108.237 12.3572 108.298 12.8683 108.33 13.3764C108.363 13.9159 108.337 14.4593 108.337 15.0834H96.7561C96.8569 15.9521 97.1942 16.6506 97.7539 17.2283C99.0348 18.5503 100.633 18.7991 102.36 18.496C103.461 18.3028 104.477 17.8847 105.391 17.1013L107.256 19.8343C106.77 20.159 106.331 20.5025 105.848 20.7667C104.647 21.4236 103.348 21.7702 101.987 21.8975C101.829 21.9122 101.674 21.9648 101.518 21.9998C101.056 22 100.594 22 100.131 22V22ZM96.7837 12.2388H104.365C104.462 10.3592 102.658 8.86626 100.391 8.91053C98.38 8.94965 96.6389 10.5405 96.7837 12.2388V12.2388ZM23.4729 22C22.9775 21.8986 22.4788 21.8107 21.9872 21.6935C18.9419 20.9677 17.143 18.6881 17.1403 15.5547C17.1379 12.5511 17.1398 9.54747 17.1398 6.54392V6.00563H21.2562V6.57918C21.2562 9.41782 21.2645 12.2564 21.2524 15.0949C21.2468 16.3824 21.6406 17.4728 22.8606 18.0331C24.1829 18.6403 25.5371 18.6181 26.7603 17.7468C27.6563 17.1089 27.9096 16.1324 27.9115 15.0831C27.9169 12.261 27.9135 9.43892 27.9135 6.61692V5.99632H31.9851L31.9853 6.55264C31.9853 9.5233 31.9867 12.4939 31.9848 15.4645C31.9827 19.0491 29.7516 21.5132 26.176 21.8889C25.9995 21.9075 25.8266 21.9619 25.652 21.9996C24.9256 22 24.1992 22 23.4729 22V22ZM62.3408 21.5543V0.0272681H77.3138V2.11547C77.3138 2.5776 77.2827 3.0424 77.3225 3.50116C77.3619 3.95794 77.1785 4.04658 76.7581 4.04421C73.8038 4.02737 70.8493 4.03529 67.8949 4.03529H66.9604V8.56824H67.518C69.7463 8.56824 71.9746 8.58102 74.2025 8.55774C74.653 8.55309 74.7584 8.6962 74.7481 9.12159C74.7204 10.2558 74.7386 11.3911 74.7386 12.5822H66.9268V21.5543H62.3408ZM109.38 21.5459V20.9796C109.38 16.162 109.38 11.3447 109.38 6.52709C109.38 5.89471 109.381 5.88916 110.034 5.8952C112.293 5.916 114.561 5.81973 116.809 5.99375C120.011 6.24155 122.518 7.6839 123.704 10.8451C124.91 14.0574 123.991 17.7236 121.541 19.732C120.097 20.9153 118.398 21.498 116.569 21.5639C114.246 21.648 111.917 21.5905 109.591 21.5921C109.544 21.5922 109.497 21.5722 109.38 21.5459V21.5459ZM113.306 18.242C114.095 18.242 114.834 18.2422 115.572 18.242C118.231 18.2411 119.904 16.7431 120.202 14.0981C120.416 12.1991 119.389 10.3103 117.753 9.63968C116.312 9.04919 114.807 9.36315 113.306 9.27966C113.306 12.2954 113.306 15.2274 113.306 18.242ZM40.2833 9.52192H33.3089V5.98949H45.9175C45.9175 6.65594 45.884 7.32566 45.9273 7.99063C45.9671 8.6036 45.7806 9.07712 45.3937 9.55836C43.2966 12.1679 41.2327 14.8037 39.158 17.431C39.0467 17.5719 38.9408 17.7171 38.7674 17.9461H46.0012V21.5464H33.2706C33.2706 20.563 33.2562 19.58 33.2843 18.5981C33.2892 18.4295 33.4585 18.2538 33.5779 18.102C35.7064 15.3911 37.8391 12.6837 39.9697 9.97444C40.0584 9.86143 40.134 9.73802 40.2833 9.52192V9.52192ZM47.1279 9.52588C47.1279 8.41116 47.1269 7.38935 47.1294 6.36743C47.1296 6.25472 47.1482 6.14201 47.1615 5.99583H59.731C59.731 6.94554 59.7414 7.88 59.7201 8.81377C59.7168 8.9545 59.5779 9.10277 59.4786 9.22905C57.3142 11.9757 55.1464 14.7195 52.9805 17.4649C52.8735 17.6005 52.778 17.7453 52.6114 17.9772H53.2424C55.2883 17.9772 57.3344 17.9858 59.3805 17.9698C59.7607 17.9669 59.9026 18.0603 59.8915 18.4654C59.8637 19.4844 59.8823 20.5049 59.8823 21.5554H47.1402C47.1402 20.5377 47.132 19.5369 47.1505 18.5367C47.1526 18.4113 47.2843 18.2804 47.3739 18.1663C49.4522 15.5199 51.5333 12.8757 53.6135 10.2307C53.7724 10.0285 53.9279 9.8237 54.1577 9.52578L47.1279 9.52588V9.52588Z" fill="#F6F2F1"/>
</svg>
