<?xml version="1.0"?>
<svg xmlns="http://www.w3.org/2000/svg" width="129" height="22" viewBox="0 0 129 22" fill="none">
<path d="M9.4176 22C12.828 22 14.9 20.8492 17.5756 18.1808C19.4644 16.2972 20.8024 13.7596 20.986 10.5424H11.3324L9.1816 12.6872V15.1464H16.8416C16.3692 15.8788 14.7164 17.2388 11.7784 17.2388C7.7648 17.2388 4.6432 14.2044 4.6432 9.9668C4.6432 8.0836 5.168 6.7752 5.9284 6.0168C6.6892 5.258 7.7644 4.7872 9.47 4.7872C11.4376 4.7872 13.536 5.4936 15.294 6.9584L17.838 4.604L18.1268 3.8192C16.6052 2.7468 14.1132 1.7004 11.7788 1.7004C7.3976 1.7004 3.8036 4.9444 3.8036 9.8884C3.8036 14.6756 7.3452 18.0236 11.7784 18.0236C16.4476 18.0236 18.4676 14.9892 19.0972 12.164H11.8572V11.2748H20.1728C19.7268 14.9892 17.0248 18.9656 11.7784 18.9656C6.6368 18.9656 2.7284 15.0152 2.7284 9.888C2.7284 4.4472 7.1352 0.7588 11.7784 0.7588C14.4804 0.7588 16.8936 1.8308 18.4152 2.956L18.6776 2.1452C17.1296 1.1252 14.7688 0 11.8308 0C8.7092 0 6.1648 1.308 4.0396 3.4268C1.4164 6.0428 0 9.0252 0 12.3736C0 18.076 4.696 22 9.4176 22ZM25.3404 0.4448H24.5532L22.1924 2.7992V21.5552H30.9016L33.1836 19.2792V18.5472H25.3404V0.4448V0.4448ZM27.1244 0.4448H26.3372V17.6576H33.1836V16.9252H27.124V0.4448H27.1244ZM44.2012 3.5316L39.9516 14.126H48.2412L44.2012 3.5316V3.5316ZM44.5684 13.3936H41.0272L42.8632 8.868L44.5684 13.3936ZM39.4 17.8408H46.2208L47.6372 21.634H49.7096L52.0704 19.2792L44.568 0.0264H43.8336L40.712 3.1652L33.288 21.634H36.488L38.8492 19.2792L39.4004 17.8408H39.4ZM50.9424 18.5472H49.8932L48.5812 15.0152H39.61L38.2724 18.5472H37.2492L44.148 1.0988H44.2532L50.9424 18.5468V18.5472ZM56.1892 1.5956H56.2676L64.4784 12.7396L72.6104 1.5956H72.6892V18.5472H71.7452V4.4732L64.4784 14.336H64.452L57.1332 4.448V18.5476H56.1892V1.5956V1.5956ZM55.402 0.2616L53.0412 2.616V21.634H55.5596L57.9204 19.2792L57.894 11.144L62.642 17.4224H63.1668L68.5968 9.9928V21.634H71.1152L73.4764 19.2792V0.2616H72.7156L69.0164 2.904L63.5864 10.2024L56.1364 0.2616H55.402V0.2616ZM91.524 12.164C91.524 13.812 91.0784 15.094 90.2388 15.9308C89.3992 16.768 88.2976 17.2388 86.6448 17.2388C82.3168 17.2388 79.4308 14.0212 79.4308 9.7836C79.4308 7.9788 79.9296 6.6184 80.7688 5.7812C81.6084 4.9444 82.8676 4.4732 84.5988 4.4732C88.5864 4.4732 91.524 7.5076 91.524 12.164V12.164ZM77.516 9.862C77.516 4.8136 81.556 0.7588 86.5664 0.7588C91.6552 0.7588 95.6164 4.7348 95.6164 9.862C95.6164 14.9108 91.5764 18.9656 86.5664 18.9656C81.4772 18.9656 77.516 14.9896 77.516 9.862V9.862ZM78.592 9.862C78.592 14.518 82.028 18.0236 86.5664 18.0236C91.1048 18.0236 94.5408 14.4924 94.5408 9.862C94.5408 5.206 91.1048 1.7004 86.5664 1.7004C82.028 1.7004 78.5916 5.2056 78.5916 9.862H78.592ZM96.4296 9.81C96.4296 4.316 92.0752 0 86.6188 0C83.4972 0 80.9524 1.308 78.8276 3.4268C76.2044 6.0428 74.7876 8.9988 74.7876 12.3736C74.788 18.076 79.5624 22 84.4156 22C87.4324 22 89.9244 20.8492 92.1804 18.5996C95.5384 15.2508 96.43 12.5564 96.43 9.8096L96.4296 9.81ZM109.414 19.41C110.91 17.9192 112.378 15.8264 112.378 12.9748V0.4448H111.592V12.9228C111.592 16.402 109.52 18.9132 106.109 18.9132C102.699 18.9132 100.626 16.3492 100.626 12.9228V0.4448H99.84L97.4792 2.7992V14.9112C97.4792 18.73 100.023 21.7648 104.011 21.7648C106.083 21.7648 107.657 21.1628 109.415 19.4104L109.414 19.41ZM106.818 16.716C106.529 17.004 106.109 17.1604 105.532 17.1604C104.85 17.1604 104.168 16.8988 103.591 16.3496C102.883 15.6696 102.41 14.6232 102.41 12.792V0.4448H101.623V12.844C101.623 15.9048 103.25 17.9716 106.109 17.9716C108.969 17.9716 110.595 15.9048 110.595 12.8704V0.4448H109.808L107.473 2.7992V13.8384C107.473 15.6172 107.211 16.3236 106.817 16.716H106.818ZM118.228 2.0668V12.3468H120.274C123.947 12.3468 126.413 10.6208 126.413 7.0372C126.413 3.9504 124.052 2.0668 120.484 2.0668H118.228V2.0668ZM118.989 11.6148V4.8656H119.75C121.035 4.8656 121.98 5.3364 122.635 6.0168C123.28 6.68253 123.638 7.57471 123.632 8.5016C123.632 9.3912 123.396 10.2544 122.924 10.7516C122.373 11.3272 121.796 11.6148 120.379 11.6148H118.989V11.6148ZM126.649 18.5468H125.232L118.57 13.1584H118.228V18.5472H117.232V1.1772H120.51C124.498 1.1772 127.41 3.4532 127.41 6.9848C127.41 11.0128 124.341 13.1584 120.248 13.1584H119.934L126.649 18.5472V18.5468ZM119.015 17.7624L123.711 21.634H126.439L128.8 19.2792L123.213 14.806C124.498 13.8384 125.993 12.4256 126.833 11.3008C127.226 10.7776 128.249 9.2868 128.249 6.9848C128.249 3.0084 125.154 0.4448 120.537 0.4448H116.445L114.084 2.7992V21.634H116.654L119.015 19.2792V17.7624Z" fill="#F6F2F1"/>
</svg>
