<?xml version="1.0"?>
<svg xmlns="http://www.w3.org/2000/svg" width="232" height="22" viewBox="0 0 232 22" fill="none">
<path d="M3.1302 21.2027L10.3946 1.00403H6.99866L7.11678 0.590604H16.2711L16.153 1.00403H13.0523L5.81745 21.2027H9.18389L9.06577 21.6161H0L0.118121 21.2027H3.1302ZM19.6819 2.06711L12.8604 21.2027H16.2268L16.1087 21.6161H9.28725L9.40537 21.2027H12.4174L19.6228 1.00403H16.2564L16.3745 0.590604H21.9557L26.149 17.2456H26.2081L31.996 1.00403H28.6L28.7181 0.590604H35.6282L35.5101 1.00403H32.4685L25.0268 22H24.8201L19.7409 2.06711H19.6819ZM40.2054 1.00403C39.3933 1.00403 38.655 1.2255 37.9906 1.68322C37.3262 2.14094 36.7356 2.65772 36.2188 3.26309C35.702 3.86846 35.2738 4.45906 34.9342 5.06443C34.5946 5.6698 34.3289 6.11275 34.1517 6.40805H33.7383L35.8054 0.590604H53.6121L51.545 6.40805H51.1315C51.2349 6.0094 51.294 5.58121 51.3383 5.10872C51.3825 4.63624 51.3973 4.16376 51.3973 3.69128C51.3973 2.93825 51.1906 2.30336 50.7919 1.78658C50.3933 1.2698 49.6846 1.00403 48.6805 1.00403H45.757L38.5221 21.2027H41.8886L41.7705 21.6161H32.6456L32.7638 21.2027H35.8644L43.0993 1.00403H40.2054ZM51.3383 10.2174C51.6926 9.11007 52.1651 8.06174 52.7705 7.07248C53.3758 6.08322 54.0846 5.16778 54.9114 4.32617C55.7383 3.48456 56.6242 2.76107 57.5544 2.1557C58.4846 1.55034 59.4591 1.06309 60.4631 0.72349C61.4671 0.383893 62.4564 0.206711 63.4456 0.206711C64.7302 0.206711 65.8081 0.472483 66.6792 0.989262C67.5503 1.50604 68.2591 2.18523 68.8054 3.01208C69.3517 3.83893 69.7356 4.75436 69.9718 5.77315C70.2081 6.79195 70.3262 7.78121 70.3262 8.77047C70.3262 9.83356 70.1638 10.8966 69.8389 11.9745C69.5141 13.0523 69.0564 14.0711 68.4805 15.0456C67.9047 16.0201 67.2107 16.9356 66.3987 17.7772C65.5866 18.6188 64.7154 19.357 63.7705 19.9919C62.8255 20.6268 61.8215 21.1141 60.7732 21.4685C59.7248 21.8228 58.647 22 57.5396 22C56.5503 22 55.6497 21.8228 54.8228 21.4537C53.996 21.0846 53.2872 20.553 52.6966 19.8443C52.106 19.1356 51.6483 18.2497 51.3087 17.2013C50.9691 16.153 50.8067 14.9275 50.8067 13.5544C50.8067 12.4322 50.9839 11.3248 51.3383 10.2174ZM53.2577 18.7221C53.3906 19.298 53.6416 19.7852 53.996 20.2134C54.3503 20.6416 54.8228 20.9812 55.4282 21.2322C56.0336 21.4832 56.7866 21.6161 57.7168 21.6161C58.8832 21.6161 59.9315 21.3208 60.8913 20.7302C61.851 20.1396 62.7074 19.3718 63.4604 18.4268C64.2134 17.4819 64.8778 16.4188 65.4537 15.2376C66.0295 14.0564 66.4872 12.8604 66.8564 11.6644C67.2255 10.4685 67.4913 9.31678 67.6832 8.22416C67.8752 7.13154 67.9638 6.21611 67.9638 5.46309C67.9638 3.92752 67.5946 2.73154 66.8711 1.88993C66.1476 1.04832 64.9812 0.620134 63.3866 0.620134C62.2792 0.620134 61.2604 0.900671 60.3302 1.47651C59.4 2.05235 58.5436 2.7906 57.7758 3.72081C57.0081 4.65101 56.3289 5.69933 55.7383 6.86577C55.1476 8.03221 54.6604 9.22819 54.2617 10.4389C53.8631 11.6497 53.5678 12.8309 53.3611 13.9678C53.1544 15.1047 53.051 16.1087 53.051 16.9503C53.051 17.5557 53.1248 18.1463 53.2577 18.7221ZM81.9611 1.00403C81.149 1.00403 80.4107 1.2255 79.7463 1.68322C79.0819 2.14094 78.4913 2.65772 77.9745 3.26309C77.4577 3.86846 77.0295 4.45906 76.6899 5.06443C76.3503 5.6698 76.0846 6.11275 75.9074 6.40805H75.494L77.5611 0.590604H95.3678L93.3007 6.40805H92.8873C92.9906 6.0094 93.0497 5.58121 93.094 5.10872C93.1383 4.63624 93.153 4.16376 93.153 3.69128C93.153 2.93825 92.9463 2.30336 92.5477 1.78658C92.149 1.2698 91.4403 1.00403 90.4362 1.00403H87.5128L80.2779 21.2027H83.6443L83.5262 21.6161H74.4013L74.5195 21.2027H77.6201L84.855 1.00403H81.9611ZM91.7356 21.2027L98.9705 1.00403H95.604L95.7222 0.590604H104.847L104.729 1.00403H101.658L98.2027 10.6604H107.711L111.196 1.00403H107.8L107.918 0.590604H117.013L116.895 1.00403H113.854L106.589 21.2027H109.985L109.867 21.6161H100.713L100.831 21.2027H103.902L107.564 11.0738H98.055L94.3933 21.2027H97.7893L97.6711 21.6161H88.6054L88.7235 21.2027H91.7356ZM117.102 1.00403L117.22 0.590604H133.639L131.838 5.61074H131.424C131.498 5.38926 131.587 5.07919 131.66 4.66577C131.734 4.25235 131.779 3.85369 131.779 3.48456C131.779 2.76107 131.616 2.1557 131.306 1.69799C130.996 1.24027 130.361 1.00403 129.416 1.00403H123.185L119.907 10.1289H122.683C123.318 10.1289 123.864 9.96644 124.352 9.64161C124.839 9.31678 125.252 8.94765 125.592 8.51946C125.932 8.09127 126.212 7.67785 126.434 7.26443C126.655 6.85101 126.803 6.5557 126.906 6.37852H127.319L124.219 14.9718H123.805C123.909 14.7356 123.997 14.4107 124.071 13.9973C124.145 13.5839 124.189 13.1852 124.189 12.8161C124.189 12.0631 123.968 11.502 123.54 11.1181C123.111 10.7342 122.521 10.5423 121.768 10.5423H119.76L115.95 21.2027H122.86C123.643 21.2027 124.381 20.9812 125.06 20.5235C125.74 20.0658 126.345 19.549 126.862 18.9436C127.379 18.3383 127.821 17.7476 128.176 17.157C128.53 16.5664 128.781 16.1235 128.944 15.8282H129.357L127.29 21.6161H110.133L110.251 21.2027H113.293L120.528 1.00403H117.102ZM157.529 14.0268H155.166V20.7302H154.812C154.591 20.5087 154.413 20.3611 154.281 20.2872C154.148 20.2134 153.926 20.1691 153.631 20.1691C153.277 20.1691 152.922 20.2577 152.553 20.4497C152.184 20.6416 151.77 20.8483 151.283 21.0846C150.796 21.3208 150.235 21.5275 149.585 21.7195C148.936 21.9114 148.153 22 147.223 22C145.82 22 144.58 21.7638 143.502 21.306C142.424 20.8483 141.376 20.1101 140.372 19.106C139.383 18.1168 138.57 16.9651 137.921 15.6215C137.271 14.2779 136.946 12.7718 136.946 11.1034C136.946 9.98121 137.079 8.97718 137.33 8.07651C137.581 7.17584 137.891 6.39329 138.26 5.72886C138.63 5.06443 138.999 4.50336 139.383 4.04564C139.766 3.58792 140.091 3.23356 140.342 2.98255C141.228 2.09664 142.247 1.37315 143.384 0.826846C144.536 0.280537 145.835 0 147.282 0C148.035 0 148.64 0.0590604 149.128 0.177181C149.615 0.295302 150.028 0.428188 150.383 0.575839C150.737 0.72349 151.062 0.856376 151.342 0.974497C151.623 1.09262 151.948 1.15168 152.302 1.15168C152.701 1.15168 152.981 1.09262 153.144 0.989262C153.306 0.885906 153.468 0.72349 153.631 0.531544H154.074V6.43758H153.749C153.675 5.9208 153.513 5.3302 153.291 4.63624C153.07 3.94228 152.715 3.29262 152.228 2.65772C151.741 2.02282 151.106 1.49128 150.309 1.06309C149.511 0.634899 148.493 0.413423 147.252 0.413423C145.776 0.413423 144.595 0.72349 143.694 1.34362C142.793 1.96376 142.099 2.77584 141.597 3.79463C141.095 4.81342 140.756 5.95034 140.593 7.2349C140.431 8.51946 140.342 9.80403 140.342 11.1034C140.342 11.9893 140.387 12.8752 140.46 13.7611C140.534 14.647 140.667 15.4886 140.859 16.2711C141.051 17.0537 141.302 17.7919 141.642 18.4564C141.981 19.1208 142.409 19.6966 142.941 20.1691C143.532 20.7007 144.137 21.0698 144.772 21.2765C145.407 21.4832 146.219 21.5866 147.223 21.5866C147.828 21.5866 148.448 21.4832 149.054 21.2765C149.659 21.0698 150.205 20.7597 150.693 20.3463C151.18 19.9329 151.564 19.4013 151.874 18.7664C152.184 18.1315 152.332 17.3785 152.332 16.5074V14.0268H148.522V13.6134H157.529V14.0268ZM157.086 21.1436H160.364V0.944966H157.086V0.531544H166.595V0.944966H163.317V21.1436H168.573C170.301 21.1436 171.659 20.5973 172.648 19.5195C173.638 18.4416 174.346 16.9651 174.804 15.0899H175.129V21.557H157.086V21.1436ZM176.458 11.0148C176.458 9.4349 176.768 7.98792 177.388 6.6443C178.008 5.30067 178.805 4.14899 179.78 3.15973C180.754 2.17047 181.847 1.40268 183.072 0.841611C184.298 0.280537 185.509 0 186.734 0C188.034 0 189.303 0.280537 190.529 0.841611C191.754 1.40268 192.862 2.17047 193.821 3.15973C194.781 4.14899 195.564 5.30067 196.14 6.6443C196.715 7.98792 197.011 9.4349 197.011 11.0148C197.011 12.3879 196.745 13.7463 196.213 15.0604C195.682 16.3745 194.958 17.5557 194.028 18.5745C193.098 19.5933 192.02 20.4201 190.765 21.055C189.51 21.6899 188.166 22 186.734 22C185.258 22 183.885 21.6899 182.63 21.0846C181.374 20.4792 180.282 19.6671 179.366 18.6483C178.451 17.6295 177.742 16.4631 177.226 15.1342C176.723 13.8054 176.458 12.4322 176.458 11.0148ZM179.854 11.0148C179.854 12.7866 179.972 14.3369 180.208 15.651C180.444 16.9651 180.843 18.0725 181.389 18.9584C181.936 19.8443 182.644 20.5087 183.515 20.9369C184.387 21.3651 185.45 21.5866 186.734 21.5866C187.989 21.5866 189.067 21.3651 189.938 20.9369C190.809 20.5087 191.533 19.8443 192.079 18.9584C192.626 18.0725 193.024 16.9651 193.26 15.651C193.497 14.3369 193.615 12.7866 193.615 11.0148C193.615 9.65638 193.526 8.34228 193.349 7.07248C193.172 5.80268 192.832 4.66577 192.33 3.67651C191.828 2.68725 191.134 1.88993 190.234 1.29933C189.333 0.708725 188.166 0.413423 186.734 0.413423C185.302 0.413423 184.136 0.708725 183.235 1.29933C182.334 1.88993 181.64 2.68725 181.138 3.67651C180.636 4.66577 180.297 5.80268 180.119 7.07248C179.942 8.34228 179.854 9.65638 179.854 11.0148ZM199.107 15.2081H199.432C199.654 16.2711 199.934 17.1718 200.274 17.8953C200.613 18.6188 200.997 19.2242 201.411 19.6966C201.824 20.1691 202.252 20.5383 202.71 20.7893C203.168 21.0403 203.626 21.2322 204.083 21.3503C204.541 21.4685 204.984 21.5423 205.412 21.557C205.84 21.5718 206.239 21.5866 206.608 21.5866C207.656 21.5866 208.513 21.4242 209.177 21.1141C209.842 20.804 210.373 20.4054 210.772 19.9181C211.17 19.4309 211.436 18.9141 211.599 18.353C211.761 17.7919 211.835 17.2752 211.835 16.8027C211.835 16.1087 211.702 15.5181 211.451 15.0309C211.2 14.5436 210.875 14.1154 210.477 13.7758C210.078 13.4362 209.65 13.1557 209.192 12.9342C208.734 12.7128 208.291 12.5503 207.878 12.4322L204.482 11.3987C202.887 10.9114 201.677 10.2617 200.864 9.44966C200.052 8.63758 199.639 7.55973 199.639 6.20134C199.639 5.31544 199.801 4.48859 200.111 3.73557C200.421 2.98255 200.864 2.31812 201.44 1.77181C202.016 1.2255 202.695 0.78255 203.493 0.472483C204.29 0.162416 205.161 0 206.106 0C206.8 0 207.376 0.0590604 207.834 0.177181C208.291 0.295302 208.69 0.428188 209.03 0.575839C209.369 0.72349 209.664 0.856376 209.93 0.974497C210.196 1.09262 210.462 1.15168 210.742 1.15168C210.993 1.15168 211.17 1.12215 211.259 1.04832C211.348 0.974497 211.466 0.81208 211.628 0.531544H212.042V5.87651H211.687C211.569 5.16778 211.362 4.48859 211.082 3.82416C210.801 3.15973 210.432 2.58389 209.974 2.08188C209.517 1.57987 208.97 1.18121 208.336 0.871141C207.701 0.561074 206.948 0.413423 206.106 0.413423C205.634 0.413423 205.117 0.472483 204.541 0.605369C203.965 0.738255 203.434 0.959732 202.946 1.2698C202.459 1.57987 202.046 1.99329 201.721 2.51007C201.396 3.02685 201.234 3.67651 201.234 4.45906C201.234 5.09396 201.366 5.6255 201.617 6.06846C201.868 6.51141 202.208 6.88054 202.607 7.1906C203.005 7.50067 203.463 7.75168 203.965 7.95839C204.467 8.1651 204.969 8.34228 205.486 8.5047L209.059 9.62684C209.428 9.74497 209.901 9.90738 210.477 10.0993C211.052 10.2913 211.599 10.5866 212.145 10.9852C212.691 11.3839 213.149 11.9007 213.533 12.5503C213.917 13.2 214.109 14.0268 214.109 15.0309C214.109 15.9611 213.932 16.8322 213.592 17.6738C213.252 18.5154 212.75 19.2537 212.101 19.8886C211.451 20.5235 210.668 21.0403 209.738 21.4242C208.808 21.8081 207.774 22 206.608 22C206.195 22 205.826 22 205.515 21.9852C205.205 21.9705 204.91 21.9557 204.63 21.9114C204.349 21.8671 204.083 21.8228 203.803 21.7785C203.522 21.7342 203.227 21.6604 202.887 21.557C202.489 21.4389 202.075 21.306 201.617 21.1436C201.16 20.9812 200.776 20.9074 200.436 20.9074C200.141 20.9074 199.934 20.9664 199.831 21.0846C199.728 21.2027 199.624 21.3651 199.55 21.557H199.107V15.2081ZM216.53 15.2081H216.855C217.077 16.2711 217.357 17.1718 217.697 17.8953C218.036 18.6188 218.42 19.2242 218.834 19.6966C219.247 20.1691 219.675 20.5383 220.133 20.7893C220.591 21.0403 221.048 21.2322 221.506 21.3503C221.964 21.4685 222.407 21.5423 222.835 21.557C223.263 21.5718 223.662 21.5866 224.031 21.5866C225.079 21.5866 225.936 21.4242 226.6 21.1141C227.264 20.804 227.796 20.4054 228.195 19.9181C228.593 19.4309 228.859 18.9141 229.021 18.353C229.184 17.7919 229.258 17.2752 229.258 16.8027C229.258 16.1087 229.125 15.5181 228.874 15.0309C228.623 14.5436 228.298 14.1154 227.899 13.7758C227.501 13.4362 227.072 13.1557 226.615 12.9342C226.157 12.7128 225.714 12.5503 225.301 12.4322L221.905 11.3987C220.31 10.9114 219.099 10.2617 218.287 9.44966C217.475 8.63758 217.062 7.55973 217.062 6.20134C217.062 5.31544 217.224 4.48859 217.534 3.73557C217.844 2.98255 218.287 2.31812 218.863 1.77181C219.439 1.2255 220.118 0.78255 220.915 0.472483C221.713 0.162416 222.584 0 223.529 0C224.223 0 224.799 0.0590604 225.256 0.177181C225.714 0.295302 226.113 0.428188 226.452 0.575839C226.792 0.72349 227.087 0.856376 227.353 0.974497C227.619 1.09262 227.885 1.15168 228.165 1.15168C228.416 1.15168 228.593 1.12215 228.682 1.04832C228.77 0.974497 228.889 0.81208 229.051 0.531544H229.464V5.87651H229.11C228.992 5.16778 228.785 4.48859 228.505 3.82416C228.224 3.15973 227.855 2.58389 227.397 2.08188C226.94 1.57987 226.393 1.18121 225.758 0.871141C225.123 0.561074 224.37 0.413423 223.529 0.413423C223.056 0.413423 222.54 0.472483 221.964 0.605369C221.388 0.738255 220.856 0.959732 220.369 1.2698C219.882 1.57987 219.468 1.99329 219.144 2.51007C218.819 3.02685 218.656 3.67651 218.656 4.45906C218.656 5.09396 218.789 5.6255 219.04 6.06846C219.291 6.51141 219.631 6.88054 220.03 7.1906C220.428 7.50067 220.886 7.75168 221.388 7.95839C221.89 8.1651 222.392 8.34228 222.909 8.5047L226.482 9.62684C226.851 9.74497 227.323 9.90738 227.899 10.0993C228.475 10.2913 229.021 10.5866 229.568 10.9852C230.114 11.3839 230.572 11.9007 230.956 12.5503C231.34 13.2 231.532 14.0268 231.532 15.0309C231.532 15.9611 231.354 16.8322 231.015 17.6738C230.675 18.5154 230.173 19.2537 229.523 19.8886C228.874 20.5235 228.091 21.0403 227.161 21.4242C226.231 21.8081 225.197 22 224.031 22C223.617 22 223.248 22 222.938 21.9852C222.628 21.9705 222.333 21.9557 222.052 21.9114C221.772 21.8671 221.506 21.8228 221.226 21.7785C220.945 21.7342 220.65 21.6604 220.31 21.557C219.911 21.4389 219.498 21.306 219.04 21.1436C218.583 20.9812 218.199 20.9074 217.859 20.9074C217.564 20.9074 217.357 20.9664 217.254 21.0846C217.15 21.2027 217.047 21.3651 216.973 21.557H216.53V15.2081Z" fill="#F4F4F4"/>
</svg>
