<?xml version="1.0"?>
<svg xmlns="http://www.w3.org/2000/svg" width="193" height="22" viewBox="0 0 193 22" fill="none">
<path fill-rule="evenodd" clip-rule="evenodd" d="M114.911 0.0388537L105.135 22H108.516L111.016 16.3284H119.144L121.485 22H124.845L115.776 0.0388537H114.911ZM115.231 6.74086L118 13.3227H112.344L115.231 6.74086ZM183.822 0.0388537L178.039 8.76488L172.357 0.0388537H168.674L176.5 12.1192V21.9492H179.612V12.1192L187.403 0.0388537H183.822V0.0388537ZM146.585 0.0388537V3.14974H154.351V21.9896H157.461V3.14974H165.55V0.0388537H146.585ZM87.8834 0.0388537V21.9896H101.852V18.9269H90.9757V12.5487H98.7112V9.44611H90.9757V3.17253H101.852V0.0388537H87.8834ZM78.9564 9.56215C79.963 9.35234 80.596 8.82911 81.428 7.99143C82.26 7.15219 82.6755 6.22488 82.6755 5.20691C82.6755 3.47145 82.0253 2.13695 80.723 1.20343C79.4211 0.271976 78.5834 0.00569854 75.2104 0.00569854C73.9199 0.00569854 71.9659 0.00569854 68.697 0V21.9508H75.7481C78.241 21.9508 80.2598 21.3752 81.8067 20.2252C83.3552 19.0766 84.1281 17.537 84.1281 15.6052C84.1281 13.9355 83.6945 12.6171 82.8247 11.6473C81.9559 10.677 80.8566 9.98177 78.9564 9.56215V9.56215ZM74.739 8.38566H71.7897V2.60268C73.1227 2.60268 73.8282 2.60993 75.1151 2.60268C77.9571 2.58558 79.7884 3.30515 79.7884 5.33384C79.7884 7.54539 77.867 8.2603 74.739 8.38566ZM81.0131 15.1369C81.0131 16.6739 80.2023 17.5888 79.2605 18.2928C78.3171 18.9995 76.821 19.1994 74.7727 19.1994H71.7897V11.2121H74.8234C76.9251 11.2121 78.2809 11.3121 79.3237 11.9737C80.2236 12.6534 81.0131 13.7081 81.0131 15.1369V15.1369ZM20.7277 0.0248664V21.9731H34.9015V18.8554H23.8199V12.2757H31.7611L31.7481 9.19745H23.809L23.8199 3.10467H34.9015V0.0248664H20.7277V0.0248664ZM0 0.0398898V21.9896H3.10104V6.61704L14.3494 21.9896H16.4911V0.0725269H13.3895V15.4467L2.09344 0.0398898H0ZM62.2504 0.010879L57.591 14.7152L52.7286 0.010879H50.5626L45.8976 14.7478L41.4885 0.010879H38.0735L45.2485 21.9565H46.6814L51.6293 6.9113L57.0491 21.9565H58.465L65.4607 0.010879H62.2504ZM134.583 18.8922C133.058 18.8922 131.987 18.3628 131.043 17.6002C130.058 16.805 129.218 15.2224 129.218 13.3854V0.0492147H126.125V13.5822C126.125 15.8616 127.174 18.3234 128.845 19.7579C130.285 20.995 132.386 21.9917 134.516 21.9917C137.125 21.9917 139.345 20.666 140.307 19.6315C141.641 18.197 142.97 16.488 142.97 13.2377V0.0492147H139.878V13.2419C139.878 15.1674 139.089 16.633 138.164 17.4733C137.238 18.3125 136.128 18.8922 134.518 18.8922H134.583V18.8922ZM189.698 2.01366V1.23555H190.114C190.359 1.23555 190.533 1.40443 190.533 1.62719C190.533 1.85203 190.359 2.01366 190.114 2.01366H189.698ZM190.848 1.62719C190.848 1.25264 190.533 0.959427 190.146 0.959427H189.39V3.186H189.698V2.27786H190.034L190.543 3.186H190.904L190.371 2.23849C190.645 2.15353 190.848 1.95253 190.848 1.62719V1.62719Z" fill="#F6F2F1"/>
<path fill-rule="evenodd" clip-rule="evenodd" d="M190.051 3.80657C189.111 3.80657 188.348 3.02846 188.348 2.07473C188.348 1.12411 189.111 0.342378 190.051 0.342378C190.992 0.342378 191.761 1.12411 191.761 2.07473C191.761 3.02846 190.992 3.80657 190.051 3.80657ZM190.051 0.0476077C189.784 0.0476077 189.521 0.100045 189.275 0.201924C189.029 0.303803 188.806 0.453128 188.617 0.641371C188.429 0.829614 188.28 1.05309 188.178 1.29903C188.076 1.54497 188.024 1.80855 188.024 2.07473C188.018 2.34473 188.066 2.61322 188.165 2.86444C188.264 3.11566 188.412 3.34455 188.601 3.53766C188.79 3.73077 189.015 3.88421 189.264 3.98897C189.513 4.09372 189.78 4.14769 190.051 4.14769C190.321 4.14769 190.588 4.09372 190.837 3.98897C191.086 3.88421 191.311 3.73077 191.5 3.53766C191.689 3.34455 191.837 3.11566 191.936 2.86444C192.035 2.61322 192.083 2.34473 192.077 2.07473C192.077 1.80851 192.025 1.54487 191.923 1.29886C191.822 1.05286 191.672 0.829337 191.484 0.641067C191.296 0.452797 191.072 0.303477 190.826 0.201646C190.58 0.0998154 190.317 0.0474714 190.051 0.0476077" fill="#F6F2F1"/>
</svg>
