<?xml version="1.0"?>
<svg xmlns="http://www.w3.org/2000/svg" width="68" height="28" viewBox="0 0 68 28" fill="none">
<path fill-rule="evenodd" clip-rule="evenodd" d="M61.3223 18.8148C62.1712 18.8199 62.6186 18.0034 62.7923 16.9767H67.4394C66.8548 24.1395 57.0692 24.1969 56.2135 18.5163V22.2148H49.466V18.476C48.8772 22.1324 46.8116 22.6359 45.9059 22.6333C45.146 22.6308 43.2846 21.9986 42.5958 20.0722L42.6619 22.1702C42.6763 23.4722 43.4981 24.2973 44.3708 24.4157V27.4442L36.4974 27.4468V24.4157C37.1582 24.3968 38.2173 23.7398 38.2291 22.2782V16.7889C37.9877 18.1689 36.9777 22.6316 32.1349 22.6316C27.3362 22.6316 26.2509 17.9185 26.045 17.228C25.1486 22.3623 21.7757 22.6453 20.2948 22.6265C17.6344 22.5922 16.0416 20.7395 16.0026 20.6983C14.4022 19.0532 14.0947 16.5616 14.1591 13.8744C14.1591 13.334 14.2955 12.2833 14.3438 11.767C12.6222 13.6393 11.0268 13.4052 9.13324 13.4772L7.54212 13.4738V16.5444C7.54043 17.7795 7.98862 18.5172 9.35013 18.5275V22.2199H0V18.6046C1.36151 18.5944 1.82834 17.7898 1.82665 16.5547V5.60601C1.82665 5.34441 1.7631 3.65128 0.00508343 3.63842V0H10.0957C11.9969 0 13.3491 0.586675 14.2599 1.3123C15.9425 2.65462 16.2788 4.96101 16.4153 6.66872C18.9858 4.40435 25.0766 3.90002 26.0967 10.6742C27.1981 5.51252 30.9556 5.12226 31.835 5.11797C33.4151 5.11283 36.1127 6.07861 36.9879 8.69035V5.47049H42.5153V7.54187C42.922 5.97826 44.286 5.12912 45.6687 5.12054C47.0023 5.11197 49.7329 6.61125 50.4336 12.3176V4.71914C50.4277 3.62384 49.766 3.05775 48.6832 3.06375L48.6798 0.0334508H55.1121V12.3228C55.6983 6.87886 58.6993 5.13684 61.2257 5.13684C63.7903 5.13684 65.6093 6.58466 66.5405 8.43732C67.7334 10.8072 67.6486 13.3126 67.5766 14.9362L59.7507 14.9379C59.7227 15.2493 59.7515 15.7716 59.7761 16.2528C59.8422 17.6011 60.2794 18.8208 61.3223 18.8148ZM20.4422 18.8148C21.2903 18.8199 21.7385 18.0128 21.9121 16.9853L25.9882 16.9836C25.7823 15.9543 25.7578 15.7373 25.7349 14.9371L18.8706 14.9379C18.8426 15.2493 18.8722 15.7716 18.896 16.2528C18.9621 17.6011 19.3992 18.8208 20.4422 18.8148V18.8148ZM30.4294 13.9052C30.4294 16.6362 30.9141 18.8345 32.1315 18.8517C33.3821 18.868 33.8336 16.6362 33.8336 13.9052C33.8336 11.1734 33.349 8.97682 32.1307 8.95967C30.9471 8.94251 30.4294 11.1734 30.4294 13.9052ZM20.4142 8.86189C19.3713 8.85674 18.9002 10.1485 18.8341 11.4959C18.8121 11.9531 18.8036 11.9737 18.8341 12.315H21.9274C21.9579 11.9737 21.9503 11.9531 21.9274 11.4959C21.8613 10.1485 21.4563 8.85674 20.4142 8.86275V8.86189ZM61.2935 8.96224C60.2506 8.95624 59.8125 10.1485 59.7464 11.4959C59.7244 11.9531 59.7159 11.9737 59.7464 12.315H62.8397C62.8702 11.9737 62.8617 11.9531 62.8397 11.4959C62.7736 10.1485 62.3356 8.95709 61.2935 8.96224ZM42.8084 16.3909C42.8084 17.7649 43.1423 18.8079 44.0937 18.8079C45.157 18.8079 45.7916 17.3498 45.7916 13.9207C45.7916 10.1553 45.218 8.8636 44.2191 8.819C43.2515 8.77612 42.7576 9.6081 42.8084 11.3261V16.3909ZM7.55737 9.34049H8.8689C10.055 9.30618 10.4702 8.58227 10.4702 6.7442C10.4702 5.07251 9.88982 4.20365 8.8689 4.20365H7.55737V9.34049Z" fill="#F6F2F1"/>
</svg>
