<?xml version="1.0"?>
<svg xmlns="http://www.w3.org/2000/svg" width="50" height="22" viewBox="0 0 50 22" fill="none">
<path d="M32.0356 0V3.14908L19.4588 19.2836H32.4385V21.9998H16.1376V18.8833L28.8451 2.62957H10.3011V22H7.35014V2.62957H0V0H32.0356ZM49.5092 5.7462C49.5092 8.34331 48.0256 10.2695 45.4403 10.9404C47.5347 11.4274 48.1783 12.3148 48.6147 14.241C48.7587 14.9051 48.854 15.6738 48.9608 16.534C49.1533 18.0847 49.3826 19.9326 50 21.9999H46.8258C46.3547 20.0906 46.1596 18.4365 46.0008 17.0901C45.8616 15.9106 45.7503 14.9672 45.5059 14.295C44.8949 12.5529 43.7823 12.0658 41.0116 12.0658H37.2811V21.9999H34.325V0H42.1461C47.0766 0 49.5092 1.95867 49.5092 5.7462V5.7462ZM37.2811 9.38211H41.6226C44.8186 9.38211 46.3348 8.55972 46.3348 6.04919C46.3348 3.21399 44.6441 2.78106 41.6226 2.78106H37.2811V9.38222V9.38211V9.38211Z" fill="#F6F2F1"/>
</svg>
