<?xml version="1.0"?>
<svg xmlns="http://www.w3.org/2000/svg" width="289" height="20" viewBox="0 0 289 20" fill="none">
<path fill-rule="evenodd" clip-rule="evenodd" d="M29.1405 0.351354L21.1408 20H19.5251L14.5851 9.91238L9.61535 20H7.9979L0 0.351354H5.64619L9.29116 9.61973L13.7624 0.000876209H15.379L19.8475 9.61973L23.4943 0.351354H29.1405ZM51.4063 19.6486H46.348V11.9294H39.2622V19.6486H34.204V0.351354H39.2622V7.39595H46.348V0.353106H51.4063V19.6504V19.6486ZM77.9944 10C77.9944 15.704 73.2892 20 67.4958 20C61.7024 20 57.0577 15.7031 57.0577 10C57.0577 4.32752 61.7016 0.0026286 67.4958 0.0026286C73.2901 0.0026286 77.9944 4.32752 77.9944 10ZM62.2317 10C62.2317 13.2743 64.409 15.3798 67.5256 15.3798C70.524 15.3798 72.8178 13.2743 72.8178 10C72.8178 6.78437 70.524 4.62017 67.5256 4.62017C64.409 4.62017 62.2334 6.78437 62.2334 10H62.2317ZM119.086 0.351354L111.089 20H109.471L104.53 9.91238L99.5619 20H97.9436L89.9466 0.351354H95.5919L99.2368 9.61973L103.705 0.000876209H105.318L109.786 9.61973L113.441 0.351354H119.086ZM141.35 19.6486H136.295V11.9294H129.206V19.6486H124.151V0.351354H129.206V7.39595H136.295V0.353106H141.35V19.6504V19.6486ZM158.396 16.023H153.109L151.561 19.6504H146.121L154.646 0H157.114L165.382 19.6495H159.94L158.396 16.0221V16.023ZM155.767 7.51511L154.06 11.9872H157.442L155.76 7.51511H155.767ZM259.593 16.023H254.306L252.758 19.6504H247.319L255.844 0H258.312L266.583 19.6495H261.142L259.6 16.0221L259.593 16.023ZM256.965 7.51511L255.258 11.9872H258.64L256.964 7.51511H256.965ZM183 4.88303H177.178V19.6495H172.12V4.88303H166.302V0.353106H183.008V4.88303H183ZM224.034 0.351354L216.037 20H214.419L209.479 9.91238L204.511 20H202.891L194.894 0.351354H200.54L204.185 9.61973L208.657 0.000876209H210.272L214.741 9.61973L218.39 0.351354H224.035H224.034ZM242.566 4.88303H234.155V7.54403H240.157V11.755H234.161V15.117H242.923V19.6495H229.105V0.353106H242.573V4.88303H242.566ZM282.516 19.6486L278.135 13.6555H276.045V19.6486H270.989V0.351354H278.603C282.867 0.351354 286.101 2.89582 286.101 6.98852C286.101 9.41558 284.924 11.3458 283.043 12.4849L288.16 19.6486H282.515H282.516ZM276.045 9.26925H278.63C280.04 9.26925 280.952 8.36152 280.952 6.98852C280.952 5.64444 280.04 4.73846 278.63 4.73846H276.04V9.26838L276.045 9.26925Z" fill="#F6F2F1"/>
</svg>
